<?xml version="1.0" encoding="UTF-8" standalone="no"?>
<svg
   xmlns:dc="http://purl.org/dc/elements/1.1/"
   xmlns:cc="http://creativecommons.org/ns#"
   xmlns:rdf="http://www.w3.org/1999/02/22-rdf-syntax-ns#"
   xmlns:svg="http://www.w3.org/2000/svg"
   xmlns="http://www.w3.org/2000/svg"
   xmlns:sodipodi="http://sodipodi.sourceforge.net/DTD/sodipodi-0.dtd"
   xmlns:inkscape="http://www.inkscape.org/namespaces/inkscape"
   width="25"
   height="25"
   viewBox="0 0 25 25"
   version="1.1"
   id="svg8"
   sodipodi:docname="instagram-icon.svg"
   inkscape:version="0.92.5 (2060ec1f9f, 2020-04-08)">
  <metadata
     id="metadata14">
    <rdf:RDF>
      <cc:Work
         rdf:about="">
        <dc:format>image/svg+xml</dc:format>
        <dc:type
           rdf:resource="http://purl.org/dc/dcmitype/StillImage" />
        <dc:title></dc:title>
      </cc:Work>
    </rdf:RDF>
  </metadata>
  <defs
     id="defs12" />
  <sodipodi:namedview
     pagecolor="#ffffff"
     bordercolor="#666666"
     borderopacity="1"
     objecttolerance="10"
     gridtolerance="10"
     guidetolerance="10"
     inkscape:pageopacity="0"
     inkscape:pageshadow="2"
     inkscape:window-width="1920"
     inkscape:window-height="1043"
     id="namedview10"
     showgrid="false"
     inkscape:zoom="9.44"
     inkscape:cx="12.5"
     inkscape:cy="12.5"
     inkscape:window-x="0"
     inkscape:window-y="0"
     inkscape:window-maximized="1"
     inkscape:current-layer="svg8" />
  <g
     id="g6"
     transform="translate(0.01499783,-0.01499277)"
     style="fill:#fb5735;fill-rule:nonzero">
    <path
       d="M 12.47,24.988 C 19.36,24.994 24.946,19.42 24.958,12.53 24.97,5.64 19.384,0.054 12.5,0.042 5.616,0.03 0.018,5.616 0.012,12.5 a 12.459,12.459 0 0 0 3.654,8.834 12.415,12.415 0 0 0 8.804,3.654 z m 0,-23.666 C 18.666,1.316 23.696,6.34 23.702,12.536 23.708,18.732 18.684,23.762 12.488,23.768 6.292,23.768 1.262,18.75 1.256,12.554 1.256,9.575 2.434,6.717 4.546,4.605 A 11.164,11.164 0 0 1 12.47,1.322 Z"
       id="path2"
       inkscape:connector-curvature="0" />
  </g>
  <g
     id="g838"
     transform="matrix(0.7058746,0,0,0.7058746,4.0252696,4.0132697)"
     style="fill:#fb5735;fill-opacity:1">
    <path
       id="path821"
       d="m 11.999,7.377 a 4.624,4.624 0 1 0 0,9.248 4.624,4.624 0 0 0 0,-9.248 z m 0,7.627 a 3.004,3.004 0 1 1 0,-6.008 3.004,3.004 0 0 1 0,6.008 z"
       inkscape:connector-curvature="0"
       style="fill:#fb5735;fill-opacity:1" />
    <circle
       id="circle823"
       r="1.0779999"
       cy="7.2069998"
       cx="16.806"
       style="fill:#fb5735;fill-opacity:1" />
    <path
       id="path825"
       d="M 20.533,6.111 A 4.605,4.605 0 0 0 17.9,3.479 6.606,6.606 0 0 0 15.714,3.059 c -0.963,-0.042 -1.268,-0.054 -3.71,-0.054 -2.442,0 -2.755,0 -3.71,0.054 A 6.554,6.554 0 0 0 6.11,3.479 4.6,4.6 0 0 0 3.477,6.111 6.585,6.585 0 0 0 3.058,8.297 c -0.043,0.962 -0.056,1.267 -0.056,3.71 0,2.442 0,2.753 0.056,3.71 0.015,0.748 0.156,1.486 0.419,2.187 a 4.61,4.61 0 0 0 2.634,2.632 6.584,6.584 0 0 0 2.185,0.45 c 0.963,0.042 1.268,0.055 3.71,0.055 2.442,0 2.755,0 3.71,-0.055 a 6.615,6.615 0 0 0 2.186,-0.419 4.613,4.613 0 0 0 2.633,-2.633 c 0.263,-0.7 0.404,-1.438 0.419,-2.186 0.043,-0.962 0.056,-1.267 0.056,-3.71 0,-2.443 0,-2.753 -0.056,-3.71 A 6.581,6.581 0 0 0 20.533,6.111 Z m -1.218,9.532 a 5.043,5.043 0 0 1 -0.311,1.688 2.987,2.987 0 0 1 -1.712,1.711 4.985,4.985 0 0 1 -1.67,0.311 c -0.95,0.044 -1.218,0.055 -3.654,0.055 -2.438,0 -2.687,0 -3.655,-0.055 A 4.96,4.96 0 0 1 6.644,19.042 2.985,2.985 0 0 1 4.925,17.331 5.08,5.08 0 0 1 4.614,15.662 c -0.043,-0.95 -0.053,-1.218 -0.053,-3.654 0,-2.437 0,-2.686 0.053,-3.655 A 5.038,5.038 0 0 1 4.925,6.666 C 5.23,5.877 5.855,5.256 6.644,4.954 A 5.01,5.01 0 0 1 8.313,4.643 C 9.264,4.6 9.531,4.588 11.968,4.588 c 2.437,0 2.687,0 3.654,0.055 a 4.96,4.96 0 0 1 1.67,0.311 2.991,2.991 0 0 1 1.712,1.712 5.08,5.08 0 0 1 0.311,1.669 c 0.043,0.951 0.054,1.218 0.054,3.655 0,2.436 0,2.698 -0.043,3.654 h -0.011 z"
       inkscape:connector-curvature="0"
       style="fill:#fb5735;fill-opacity:1" />
  </g>
</svg>
