<svg width="50" height="37" viewBox="0 0 50 37" fill="none" xmlns="http://www.w3.org/2000/svg">
<path d="M48.2875 12.1744C48.6551 11.8868 49.2017 12.1559 49.2017 12.6105V31.5836C49.2017 34.0422 47.1753 36.037 44.6777 36.037H5.46935C2.97171 36.037 0.945312 34.0422 0.945312 31.5836V12.6198C0.945312 12.1559 1.48254 11.8961 1.85955 12.1837C3.97076 13.798 6.77001 15.8484 16.3836 22.7233C18.3723 24.1521 21.7276 27.1581 25.0735 27.1395C28.4383 27.1674 31.8596 24.0964 33.7729 22.7233C43.3865 15.8484 46.1763 13.7888 48.2875 12.1744ZM25.0735 24.1614C27.2601 24.1985 30.4081 21.4522 31.9915 20.3204C44.4986 11.3858 45.4506 10.6065 48.3346 8.3798C48.8813 7.9623 49.2017 7.31285 49.2017 6.62629V4.86351C49.2017 2.40489 47.1753 0.410156 44.6777 0.410156H5.46935C2.97171 0.410156 0.945312 2.40489 0.945312 4.86351V6.62629C0.945312 7.31285 1.26577 7.95302 1.81242 8.3798C4.6965 10.5972 5.64843 11.3858 18.1555 20.3204C19.7389 21.4522 22.8869 24.1985 25.0735 24.1614Z" fill="black"/>
</svg>
