<svg width="50" height="50" viewBox="0 0 50 50" fill="none" xmlns="http://www.w3.org/2000/svg">
<path d="M9.03918 28.2336C4.01402 33.2588 0.848222 39.8443 0.0622345 46.9074L0.0593628 46.9294C-0.103367 48.392 1.13242 49.6288 2.59508 49.467C9.66725 48.6861 16.2624 45.5192 21.2937 40.4882L28.5113 33.2706L16.2567 21.0161L9.03918 28.2336ZM46.5188 3.00857C43.1349 -0.375253 37.6481 -0.375253 34.2642 3.00857L32.1813 5.09152L28.6817 1.59282C27.1864 0.0976206 24.7618 0.0976206 23.2675 1.59282L13.3008 11.5596C12.7025 12.1578 12.7025 13.1275 13.3008 13.7258L15.4661 15.891C16.0643 16.4893 17.034 16.4893 17.6323 15.891L25.9746 7.54874L27.8498 9.42396L18.423 18.8499L30.6775 31.1044L46.5188 15.2631C49.9026 11.8793 49.9026 6.39336 46.5188 3.00857Z" fill="black"/>
</svg>
