<svg width="50" height="50" viewBox="0 0 50 50" fill="none" xmlns="http://www.w3.org/2000/svg">
<path d="M41.8959 7.89505C37.3914 3.37985 31.3926 0.896484 25.0176 0.896484C11.859 0.896484 1.15152 11.604 1.15152 24.7626C1.15152 28.966 2.24807 33.0727 4.33367 36.6956L0.947266 49.0587L13.6006 45.7368C17.0837 47.6396 21.0077 48.6394 25.0069 48.6394H25.0176C38.1654 48.6394 49.1094 37.9319 49.1094 24.7733C49.1094 18.3983 46.4003 12.4103 41.8959 7.89505V7.89505ZM25.0176 44.6187C21.4484 44.6187 17.9545 43.6619 14.9121 41.8558L14.1919 41.4258L6.68802 43.3931L8.68761 36.0721L8.21459 35.3195C6.22575 32.1589 5.18296 28.5145 5.18296 24.7626C5.18296 13.8293 14.0844 4.92792 25.0284 4.92792C30.3283 4.92792 35.3058 6.99201 39.047 10.7439C42.7882 14.4958 45.0888 19.4733 45.078 24.7733C45.078 35.7173 35.9508 44.6187 25.0176 44.6187V44.6187ZM35.8971 29.7615C35.3058 29.4605 32.3709 28.02 31.8227 27.8264C31.2744 27.6222 30.8766 27.5254 30.4788 28.1275C30.0811 28.7295 28.9415 30.0625 28.5868 30.4711C28.2427 30.8688 27.888 30.9226 27.2967 30.6216C23.792 28.8692 21.4914 27.4932 19.1801 23.5263C18.5673 22.4727 19.7929 22.548 20.9324 20.2689C21.1259 19.8711 21.0292 19.5271 20.8787 19.2261C20.7282 18.925 19.5349 15.9902 19.0403 14.7969C18.5566 13.6358 18.062 13.7971 17.6965 13.7756C17.3525 13.7541 16.9547 13.7541 16.557 13.7541C16.1592 13.7541 15.5142 13.9046 14.9659 14.4958C14.4176 15.0979 12.8803 16.5384 12.8803 19.4733C12.8803 22.4082 15.0197 25.2463 15.3099 25.6441C15.6109 26.0419 19.5134 32.0621 25.5014 34.653C29.2855 36.2871 30.7691 36.4268 32.6612 36.1473C33.8115 35.9753 36.1874 34.7068 36.6819 33.3092C37.1764 31.9116 37.1764 30.7183 37.0259 30.4711C36.8861 30.2023 36.4884 30.0518 35.8971 29.7615Z" fill="#010704"/>
</svg>
