<svg width="187" height="40" viewBox="0 0 187 40" fill="none" xmlns="http://www.w3.org/2000/svg">
<path d="M0 20C0 8.95431 8.9543 0 20 0H187V40H20C8.95431 40 0 31.0457 0 20Z" fill="#EEFD68"/>
<path d="M13.528 24.5L15.288 13.3H22.936L22.696 14.868H16.824L16.312 18.116H22.056L21.816 19.652H16.072L15.56 22.932H21.416L21.176 24.5H13.528ZM22.7594 24.5L24.0234 16.58H25.7194L25.5594 17.604C26.2954 16.8467 27.1754 16.468 28.1994 16.468C29.2447 16.468 30.034 16.8093 30.5674 17.492C31.1114 18.1747 31.282 19.1453 31.0794 20.404L30.4234 24.5H28.7274L29.3514 20.548C29.49 19.6733 29.3994 19.0173 29.0794 18.58C28.77 18.1427 28.306 17.924 27.6874 17.924C27.0474 17.924 26.4874 18.1693 26.0074 18.66C25.5274 19.14 25.218 19.7907 25.0794 20.612L24.4554 24.5H22.7594ZM41.8664 24.66C40.3304 24.66 39.0824 24.0947 38.1224 22.964C37.173 21.8333 36.8264 20.4787 37.0824 18.9C37.3384 17.2787 38.0904 15.9133 39.3384 14.804C40.597 13.6947 42.0477 13.14 43.6904 13.14C44.725 13.14 45.653 13.4173 46.4744 13.972C47.2957 14.5267 47.8717 15.252 48.2024 16.148L46.4904 16.964C46.2557 16.3453 45.861 15.8493 45.3064 15.476C44.7624 15.1027 44.1277 14.916 43.4024 14.916C42.3144 14.916 41.333 15.3053 40.4584 16.084C39.5837 16.8627 39.0557 17.8013 38.8744 18.9C38.7037 20.0093 38.9277 20.9533 39.5464 21.732C40.1757 22.5 41.0397 22.884 42.1384 22.884C42.8744 22.884 43.573 22.6973 44.2344 22.324C44.9064 21.94 45.461 21.428 45.8984 20.788L47.3704 21.604C45.9944 23.6413 44.1597 24.66 41.8664 24.66ZM52.0659 24.708C50.9459 24.708 50.0285 24.308 49.3139 23.508C48.5992 22.6973 48.3379 21.7053 48.5299 20.532C48.7219 19.316 49.2765 18.3133 50.1939 17.524C51.1112 16.7347 52.1779 16.34 53.3939 16.34C54.5885 16.34 55.5219 16.756 56.1939 17.588C56.8765 18.4093 57.1272 19.3907 56.9459 20.532C56.7539 21.748 56.2045 22.7507 55.2979 23.54C54.3912 24.3187 53.3139 24.708 52.0659 24.708ZM52.3219 23.124C53.0152 23.1347 53.6392 22.8893 54.1939 22.388C54.7592 21.8867 55.1005 21.2733 55.2179 20.548C55.3245 19.812 55.1752 19.1987 54.7699 18.708C54.3752 18.2067 53.8312 17.956 53.1379 17.956C52.4445 17.9453 51.8152 18.1907 51.2499 18.692C50.6952 19.1933 50.3645 19.812 50.2579 20.548C50.1405 21.2733 50.2792 21.8867 50.6739 22.388C51.0792 22.8787 51.6285 23.124 52.3219 23.124ZM57.9 24.5L59.164 16.58H60.86L60.7 17.604C61.436 16.8467 62.316 16.468 63.34 16.468C64.3853 16.468 65.1747 16.8093 65.708 17.492C66.252 18.1747 66.4227 19.1453 66.22 20.404L65.564 24.5H63.868L64.492 20.548C64.6307 19.6733 64.54 19.0173 64.22 18.58C63.9107 18.1427 63.4467 17.924 62.828 17.924C62.188 17.924 61.628 18.1693 61.148 18.66C60.668 19.14 60.3587 19.7907 60.22 20.612L59.596 24.5H57.9ZM70.3928 24.804C69.6141 24.804 68.9154 24.5907 68.2968 24.164C67.6888 23.7373 67.3314 23.1827 67.2248 22.5L68.7448 22.052C68.8408 22.4893 69.0541 22.8307 69.3848 23.076C69.7261 23.3213 70.1474 23.444 70.6488 23.444C71.1928 23.444 71.6408 23.3267 71.9928 23.092C72.3448 22.8467 72.5581 22.5213 72.6328 22.116C72.6861 21.7427 72.5368 21.4973 72.1848 21.38C71.8434 21.252 71.3368 21.1613 70.6648 21.108C70.0034 21.044 69.4968 20.9373 69.1448 20.788C68.3128 20.4467 67.9714 19.8067 68.1208 18.868C68.2381 18.164 68.6328 17.5667 69.3048 17.076C69.9768 16.5853 70.7608 16.34 71.6568 16.34C72.4781 16.34 73.1341 16.5427 73.6248 16.948C74.1261 17.3533 74.4141 17.8707 74.4888 18.5L73.0008 18.9C72.9581 18.5267 72.8088 18.2227 72.5528 17.988C72.2968 17.7427 71.9394 17.62 71.4808 17.62C71.0114 17.62 70.6061 17.7427 70.2648 17.988C69.9341 18.2227 69.7421 18.5053 69.6888 18.836C69.6461 19.1667 69.7474 19.4173 69.9928 19.588C70.2488 19.748 70.5528 19.844 70.9048 19.876C71.2568 19.908 71.6728 19.956 72.1528 20.02C72.6328 20.084 73.0061 20.18 73.2728 20.308C74.0621 20.6707 74.3928 21.284 74.2648 22.148C74.1368 22.9587 73.7261 23.604 73.0328 24.084C72.3501 24.564 71.4701 24.804 70.3928 24.804ZM78.9863 24.532C78.1756 24.532 77.5729 24.2973 77.1783 23.828C76.7943 23.348 76.6663 22.7293 76.7943 21.972L77.4183 18.052H75.6103L75.8343 16.58H77.6423L78.0103 14.276H79.6903L79.3223 16.58H81.5463L81.3063 18.052H79.0823L78.5063 21.7C78.4316 22.1373 78.4956 22.4787 78.6983 22.724C78.9009 22.9693 79.2263 23.092 79.6743 23.092C79.9729 23.092 80.2983 23.0333 80.6503 22.916L80.4263 24.292C79.9143 24.452 79.4343 24.532 78.9863 24.532ZM82.0566 24.5L83.3206 16.58H85.0166L84.8406 17.652C85.534 16.8307 86.6166 16.436 88.0886 16.468L87.8006 18.228C87.5233 18.1107 87.1926 18.052 86.8086 18.052C86.222 18.052 85.7046 18.2653 85.2566 18.692C84.8086 19.1187 84.5313 19.6573 84.4246 20.308L83.7526 24.5H82.0566ZM91.5238 24.612C90.4891 24.612 89.6998 24.2707 89.1558 23.588C88.6224 22.9053 88.4571 21.9347 88.6598 20.676L89.3158 16.58H91.0278L90.3878 20.516C90.2491 21.3907 90.3344 22.052 90.6438 22.5C90.9638 22.9373 91.4331 23.156 92.0518 23.156C92.7131 23.156 93.2784 22.9213 93.7478 22.452C94.2171 21.972 94.5211 21.3053 94.6598 20.452L95.2838 16.58H96.9798L95.7158 24.5H94.0198L94.1958 23.492H94.1638C93.4171 24.2387 92.5371 24.612 91.5238 24.612ZM101.455 24.708C100.324 24.708 99.407 24.2973 98.703 23.476C98.0097 22.6547 97.7537 21.6733 97.935 20.532C98.1163 19.3587 98.6657 18.3667 99.583 17.556C100.511 16.7453 101.578 16.34 102.783 16.34C103.466 16.34 104.084 16.4947 104.639 16.804C105.194 17.1133 105.62 17.54 105.919 18.084L104.399 19.076C104.047 18.3293 103.423 17.956 102.527 17.956C101.812 17.9453 101.178 18.1907 100.623 18.692C100.068 19.1933 99.7323 19.812 99.615 20.548C99.4977 21.284 99.631 21.8973 100.015 22.388C100.41 22.868 100.959 23.1133 101.663 23.124C102.1 23.124 102.522 23.0227 102.927 22.82C103.343 22.6173 103.684 22.34 103.951 21.988L105.135 22.98C104.122 24.132 102.895 24.708 101.455 24.708ZM109.861 24.708C108.731 24.708 107.813 24.2973 107.109 23.476C106.416 22.6547 106.16 21.6733 106.341 20.532C106.523 19.3587 107.072 18.3667 107.989 17.556C108.917 16.7453 109.984 16.34 111.189 16.34C111.872 16.34 112.491 16.4947 113.045 16.804C113.6 17.1133 114.027 17.54 114.325 18.084L112.805 19.076C112.453 18.3293 111.829 17.956 110.933 17.956C110.219 17.9453 109.584 18.1907 109.029 18.692C108.475 19.1933 108.139 19.812 108.021 20.548C107.904 21.284 108.037 21.8973 108.421 22.388C108.816 22.868 109.365 23.1133 110.069 23.124C110.507 23.124 110.928 23.0227 111.333 22.82C111.749 22.6173 112.091 22.34 112.357 21.988L113.541 22.98C112.528 24.132 111.301 24.708 109.861 24.708ZM117.704 14.852C117.49 15.044 117.25 15.14 116.984 15.14C116.717 15.14 116.504 15.044 116.344 14.852C116.184 14.66 116.125 14.4307 116.168 14.164C116.21 13.908 116.338 13.6893 116.552 13.508C116.776 13.316 117.021 13.22 117.288 13.22C117.554 13.22 117.768 13.316 117.928 13.508C118.088 13.6893 118.146 13.908 118.104 14.164C118.061 14.4307 117.928 14.66 117.704 14.852ZM114.648 24.5L115.912 16.58H117.608L116.344 24.5H114.648ZM122.979 15.188L124.467 12.996H125.827L124.131 15.188H122.979ZM122.035 24.708C120.915 24.708 119.997 24.308 119.283 23.508C118.568 22.6973 118.307 21.7053 118.499 20.532C118.691 19.316 119.245 18.3133 120.163 17.524C121.08 16.7347 122.147 16.34 123.363 16.34C124.557 16.34 125.491 16.756 126.163 17.588C126.845 18.4093 127.096 19.3907 126.915 20.532C126.723 21.748 126.173 22.7507 125.267 23.54C124.36 24.3187 123.283 24.708 122.035 24.708ZM122.291 23.124C122.984 23.1347 123.608 22.8893 124.163 22.388C124.728 21.8867 125.069 21.2733 125.187 20.548C125.293 19.812 125.144 19.1987 124.739 18.708C124.344 18.2067 123.8 17.956 123.107 17.956C122.413 17.9453 121.784 18.1907 121.219 18.692C120.664 19.1933 120.333 19.812 120.227 20.548C120.109 21.2733 120.248 21.8867 120.643 22.388C121.048 22.8787 121.597 23.124 122.291 23.124ZM127.869 24.5L129.133 16.58H130.829L130.669 17.604C131.405 16.8467 132.285 16.468 133.309 16.468C134.354 16.468 135.143 16.8093 135.677 17.492C136.221 18.1747 136.391 19.1453 136.189 20.404L135.533 24.5H133.837L134.461 20.548C134.599 19.6733 134.509 19.0173 134.189 18.58C133.879 18.1427 133.415 17.924 132.797 17.924C132.157 17.924 131.597 18.1693 131.117 18.66C130.637 19.14 130.327 19.7907 130.189 20.612L129.565 24.5H127.869Z" fill="#010704"/>
<path d="M175.164 15.5047C176.21 18.5679 176.155 21.9001 175.008 24.927L168.504 22.4631C169.077 20.9497 169.105 19.2836 168.582 17.752L175.164 15.5047Z" fill="white" fill-opacity="0.75" stroke="#EEFD68" stroke-width="1.5"/>
<path d="M174.981 24.9979C173.818 28.0186 171.638 30.5392 168.817 32.1254L165.408 26.0628C166.819 25.2697 167.909 24.0094 168.491 22.499L174.981 24.9979Z" fill="white" fill-opacity="0.75" stroke="#EEFD68" stroke-width="1.5"/>
<path d="M168.791 32.1405C165.966 33.7205 162.678 34.2659 159.494 33.6826L160.747 26.8415C162.339 27.1331 163.983 26.8605 165.396 26.0704L168.791 32.1405Z" fill="white" fill-opacity="0.75" stroke="#EEFD68" stroke-width="1.5"/>
<path d="M159.419 33.6691C156.239 33.0687 153.367 31.3778 151.299 28.8877L156.649 24.4441C157.683 25.6892 159.119 26.5346 160.709 26.8348L159.419 33.6691Z" fill="white" fill-opacity="0.75" stroke="#EEFD68" stroke-width="1.5"/>
<path d="M151.302 28.8903C149.233 26.4006 148.098 23.2675 148.091 20.0306L155.046 20.0158C155.049 21.6343 155.617 23.2008 156.651 24.4457L151.302 28.8903Z" fill="white" fill-opacity="0.75" stroke="#EEFD68" stroke-width="1.5"/>
<path d="M168.918 7.93352C171.726 9.54319 173.885 12.0819 175.023 15.1122L168.512 17.5569C167.943 16.0417 166.864 14.7724 165.46 13.9675L168.918 7.93352Z" fill="white" fill-opacity="0.75" stroke="#EEFD68" stroke-width="1.5"/>
<path d="M148.091 19.9549C148.101 16.718 149.24 13.5862 151.312 11.0988L156.656 15.5494C155.62 16.7931 155.051 18.359 155.046 19.9775L148.091 19.9549Z" fill="white" fill-opacity="0.75" stroke="#EEFD68" stroke-width="1.5"/>
<path d="M151.331 11.0751C153.408 8.59231 156.285 6.9115 159.468 6.32224L160.734 13.161C159.143 13.4556 157.704 14.296 156.665 15.5374L151.331 11.0751Z" fill="white" fill-opacity="0.75" stroke="#EEFD68" stroke-width="1.5"/>
<path d="M159.543 6.308C162.729 5.73587 166.015 6.29274 168.834 7.88268L165.418 13.9408C164.008 13.1458 162.365 12.8674 160.772 13.1535L159.543 6.308Z" fill="#FB5735" stroke="#EEFD68" stroke-width="1.5"/>
</svg>
