<svg width="155" height="40" viewBox="0 0 155 40" fill="none" xmlns="http://www.w3.org/2000/svg">
<path d="M0 20C0 8.95431 8.9543 0 20 0H155V40H20C8.9543 40 0 31.0457 0 20Z" fill="#EEFD68"/>
<path d="M14.9493 26V14.8H19.5573C20.5493 14.8 21.3973 14.96 22.1013 15.28C22.816 15.6 23.3653 16.0587 23.7493 16.656C24.1333 17.2533 24.3253 17.9627 24.3253 18.784C24.3253 19.6053 24.1333 20.3147 23.7493 20.912C23.3653 21.4987 22.816 21.952 22.1013 22.272C21.3973 22.5813 20.5493 22.736 19.5573 22.736H16.1013L17.0293 21.792V26H14.9493ZM22.2773 26L19.4453 21.936H21.6693L24.5173 26H22.2773ZM17.0293 22.016L16.1013 21.024H19.4613C20.3786 21.024 21.0666 20.8267 21.5253 20.432C21.9946 20.0373 22.2293 19.488 22.2293 18.784C22.2293 18.0693 21.9946 17.52 21.5253 17.136C21.0666 16.752 20.3786 16.56 19.4613 16.56H16.1013L17.0293 15.536V22.016ZM31.6463 26V24.272L31.5343 23.904V20.88C31.5343 20.2933 31.3583 19.84 31.0063 19.52C30.6543 19.1893 30.121 19.024 29.4063 19.024C28.9263 19.024 28.4516 19.0987 27.9823 19.248C27.5236 19.3973 27.1343 19.6053 26.8143 19.872L26.0303 18.416C26.489 18.064 27.033 17.8027 27.6623 17.632C28.3023 17.4507 28.9636 17.36 29.6463 17.36C30.8836 17.36 31.8383 17.6587 32.5103 18.256C33.193 18.8427 33.5343 19.7547 33.5343 20.992V26H31.6463ZM28.9583 26.112C28.3183 26.112 27.7583 26.0053 27.2783 25.792C26.7983 25.568 26.425 25.264 26.1583 24.88C25.9023 24.4853 25.7743 24.0427 25.7743 23.552C25.7743 23.072 25.8863 22.64 26.1103 22.256C26.345 21.872 26.7236 21.568 27.2463 21.344C27.769 21.12 28.4623 21.008 29.3263 21.008H31.8063V22.336H29.4703C28.7876 22.336 28.329 22.448 28.0943 22.672C27.8596 22.8853 27.7423 23.152 27.7423 23.472C27.7423 23.8347 27.8863 24.1227 28.1743 24.336C28.4623 24.5493 28.8623 24.656 29.3743 24.656C29.865 24.656 30.3023 24.544 30.6863 24.32C31.081 24.096 31.3636 23.7653 31.5343 23.328L31.8703 24.528C31.6783 25.0293 31.3316 25.4187 30.8303 25.696C30.3396 25.9733 29.7156 26.112 28.9583 26.112ZM39.7327 26.112C38.9114 26.112 38.17 25.9307 37.5087 25.568C36.858 25.1947 36.346 24.6827 35.9727 24.032C35.5994 23.3813 35.4127 22.6133 35.4127 21.728C35.4127 20.8427 35.5994 20.0747 35.9727 19.424C36.346 18.7733 36.858 18.2667 37.5087 17.904C38.17 17.5413 38.9114 17.36 39.7327 17.36C40.4474 17.36 41.0874 17.52 41.6527 17.84C42.218 18.1493 42.666 18.624 42.9967 19.264C43.3274 19.904 43.4927 20.7253 43.4927 21.728C43.4927 22.72 43.3327 23.5413 43.0127 24.192C42.6927 24.832 42.25 25.312 41.6847 25.632C41.1194 25.952 40.4687 26.112 39.7327 26.112ZM39.9727 24.4C40.4527 24.4 40.8794 24.2933 41.2527 24.08C41.6367 23.8667 41.9407 23.5573 42.1647 23.152C42.3994 22.7467 42.5167 22.272 42.5167 21.728C42.5167 21.1733 42.3994 20.6987 42.1647 20.304C41.9407 19.8987 41.6367 19.5893 41.2527 19.376C40.8794 19.1627 40.4527 19.056 39.9727 19.056C39.4927 19.056 39.0607 19.1627 38.6767 19.376C38.3034 19.5893 37.9994 19.8987 37.7647 20.304C37.5407 20.6987 37.4287 21.1733 37.4287 21.728C37.4287 22.272 37.5407 22.7467 37.7647 23.152C37.9994 23.5573 38.3034 23.8667 38.6767 24.08C39.0607 24.2933 39.4927 24.4 39.9727 24.4ZM42.5647 26V23.984L42.6447 21.712L42.4847 19.44V14.128H44.4687V26H42.5647ZM47.1011 26V17.456H49.1011V26H47.1011ZM48.1091 16.048C47.7357 16.048 47.4264 15.9307 47.1811 15.696C46.9464 15.4613 46.8291 15.1787 46.8291 14.848C46.8291 14.5067 46.9464 14.224 47.1811 14C47.4264 13.7653 47.7357 13.648 48.1091 13.648C48.4824 13.648 48.7864 13.76 49.0211 13.984C49.2664 14.1973 49.3891 14.4693 49.3891 14.8C49.3891 15.152 49.2717 15.4507 49.0371 15.696C48.8024 15.9307 48.4931 16.048 48.1091 16.048ZM55.6461 26.112C54.7501 26.112 53.9501 25.9253 53.2461 25.552C52.5527 25.168 52.0087 24.6453 51.6141 23.984C51.2194 23.3227 51.0221 22.5707 51.0221 21.728C51.0221 20.8747 51.2194 20.1227 51.6141 19.472C52.0087 18.8107 52.5527 18.2933 53.2461 17.92C53.9501 17.5467 54.7501 17.36 55.6461 17.36C56.4781 17.36 57.2087 17.5307 57.8381 17.872C58.4781 18.2027 58.9634 18.6933 59.2941 19.344L57.7581 20.24C57.5021 19.8347 57.1874 19.536 56.8141 19.344C56.4514 19.152 56.0567 19.056 55.6301 19.056C55.1394 19.056 54.6967 19.1627 54.3021 19.376C53.9074 19.5893 53.5981 19.8987 53.3741 20.304C53.1501 20.6987 53.0381 21.1733 53.0381 21.728C53.0381 22.2827 53.1501 22.7627 53.3741 23.168C53.5981 23.5627 53.9074 23.8667 54.3021 24.08C54.6967 24.2933 55.1394 24.4 55.6301 24.4C56.0567 24.4 56.4514 24.304 56.8141 24.112C57.1874 23.92 57.5021 23.6213 57.7581 23.216L59.2941 24.112C58.9634 24.752 58.4781 25.248 57.8381 25.6C57.2087 25.9413 56.4781 26.112 55.6461 26.112ZM66.2869 26V24.272L66.1749 23.904V20.88C66.1749 20.2933 65.9989 19.84 65.6469 19.52C65.2949 19.1893 64.7616 19.024 64.0469 19.024C63.5669 19.024 63.0923 19.0987 62.6229 19.248C62.1643 19.3973 61.7749 19.6053 61.4549 19.872L60.6709 18.416C61.1296 18.064 61.6736 17.8027 62.3029 17.632C62.9429 17.4507 63.6043 17.36 64.2869 17.36C65.5243 17.36 66.4789 17.6587 67.1509 18.256C67.8336 18.8427 68.1749 19.7547 68.1749 20.992V26H66.2869ZM63.5989 26.112C62.9589 26.112 62.3989 26.0053 61.9189 25.792C61.4389 25.568 61.0656 25.264 60.7989 24.88C60.5429 24.4853 60.4149 24.0427 60.4149 23.552C60.4149 23.072 60.5269 22.64 60.7509 22.256C60.9856 21.872 61.3643 21.568 61.8869 21.344C62.4096 21.12 63.1029 21.008 63.9669 21.008H66.4469V22.336H64.1109C63.4283 22.336 62.9696 22.448 62.7349 22.672C62.5003 22.8853 62.3829 23.152 62.3829 23.472C62.3829 23.8347 62.5269 24.1227 62.8149 24.336C63.1029 24.5493 63.5029 24.656 64.0149 24.656C64.5056 24.656 64.9429 24.544 65.3269 24.32C65.7216 24.096 66.0043 23.7653 66.1749 23.328L66.5109 24.528C66.3189 25.0293 65.9723 25.4187 65.4709 25.696C64.9803 25.9733 64.3563 26.112 63.5989 26.112ZM74.6773 26.112C73.7813 26.112 72.9813 25.9253 72.2773 25.552C71.584 25.168 71.04 24.6453 70.6453 23.984C70.2506 23.3227 70.0533 22.5707 70.0533 21.728C70.0533 20.8747 70.2506 20.1227 70.6453 19.472C71.04 18.8107 71.584 18.2933 72.2773 17.92C72.9813 17.5467 73.7813 17.36 74.6773 17.36C75.5093 17.36 76.24 17.5307 76.8693 17.872C77.5093 18.2027 77.9946 18.6933 78.3253 19.344L76.7893 20.24C76.5333 19.8347 76.2186 19.536 75.8453 19.344C75.4826 19.152 75.088 19.056 74.6613 19.056C74.1706 19.056 73.728 19.1627 73.3333 19.376C72.9386 19.5893 72.6293 19.8987 72.4053 20.304C72.1813 20.6987 72.0693 21.1733 72.0693 21.728C72.0693 22.2827 72.1813 22.7627 72.4053 23.168C72.6293 23.5627 72.9386 23.8667 73.3333 24.08C73.728 24.2933 74.1706 24.4 74.6613 24.4C75.088 24.4 75.4826 24.304 75.8453 24.112C76.2186 23.92 76.5333 23.6213 76.7893 23.216L78.3253 24.112C77.9946 24.752 77.5093 25.248 76.8693 25.6C76.24 25.9413 75.5093 26.112 74.6773 26.112ZM79.9761 26V17.456H81.9761V26H79.9761ZM80.9841 16.048C80.6107 16.048 80.3014 15.9307 80.0561 15.696C79.8214 15.4613 79.7041 15.1787 79.7041 14.848C79.7041 14.5067 79.8214 14.224 80.0561 14C80.3014 13.7653 80.6107 13.648 80.9841 13.648C81.3574 13.648 81.6614 13.76 81.8961 13.984C82.1414 14.1973 82.2641 14.4693 82.2641 14.8C82.2641 15.152 82.1467 15.4507 81.9121 15.696C81.6774 15.9307 81.3681 16.048 80.9841 16.048ZM88.4411 26.112C87.5664 26.112 86.7877 25.9253 86.1051 25.552C85.4224 25.168 84.8837 24.6453 84.4891 23.984C84.0944 23.3227 83.8971 22.5707 83.8971 21.728C83.8971 20.8747 84.0944 20.1227 84.4891 19.472C84.8837 18.8107 85.4224 18.2933 86.1051 17.92C86.7877 17.5467 87.5664 17.36 88.4411 17.36C89.3264 17.36 90.1104 17.5467 90.7931 17.92C91.4864 18.2933 92.0251 18.8053 92.4091 19.456C92.8037 20.1067 93.0011 20.864 93.0011 21.728C93.0011 22.5707 92.8037 23.3227 92.4091 23.984C92.0251 24.6453 91.4864 25.168 90.7931 25.552C90.1104 25.9253 89.3264 26.112 88.4411 26.112ZM88.4411 24.4C88.9317 24.4 89.3691 24.2933 89.7531 24.08C90.1371 23.8667 90.4357 23.5573 90.6491 23.152C90.8731 22.7467 90.9851 22.272 90.9851 21.728C90.9851 21.1733 90.8731 20.6987 90.6491 20.304C90.4357 19.8987 90.1371 19.5893 89.7531 19.376C89.3691 19.1627 88.9371 19.056 88.4571 19.056C87.9664 19.056 87.5291 19.1627 87.1451 19.376C86.7717 19.5893 86.4731 19.8987 86.2491 20.304C86.0251 20.6987 85.9131 21.1733 85.9131 21.728C85.9131 22.272 86.0251 22.7467 86.2491 23.152C86.4731 23.5573 86.7717 23.8667 87.1451 24.08C87.5291 24.2933 87.9611 24.4 88.4411 24.4ZM87.0811 16.288L89.2411 14.096H91.5931L88.8091 16.288H87.0811ZM99.7616 17.36C100.444 17.36 101.052 17.4933 101.586 17.76C102.13 18.0267 102.556 18.4373 102.866 18.992C103.175 19.536 103.33 20.24 103.33 21.104V26H101.33V21.36C101.33 20.6027 101.148 20.0373 100.786 19.664C100.434 19.2907 99.9376 19.104 99.2976 19.104C98.8282 19.104 98.4122 19.2 98.0496 19.392C97.6869 19.584 97.4042 19.872 97.2016 20.256C97.0096 20.6293 96.9136 21.104 96.9136 21.68V26H94.9136V17.456H96.8176V19.76L96.4816 19.056C96.7802 18.512 97.2122 18.096 97.7776 17.808C98.3536 17.5093 99.0149 17.36 99.7616 17.36Z" fill="#010704"/>
<path d="M143.164 15.5047C144.21 18.5679 144.155 21.9001 143.008 24.927L136.504 22.4631C137.077 20.9497 137.105 19.2836 136.582 17.752L143.164 15.5047Z" fill="white" fill-opacity="0.75" stroke="#EEFD68" stroke-width="1.5"/>
<path d="M142.981 24.9979C141.818 28.0186 139.638 30.5392 136.817 32.1254L133.408 26.0628C134.819 25.2697 135.909 24.0094 136.491 22.499L142.981 24.9979Z" fill="white" fill-opacity="0.75" stroke="#EEFD68" stroke-width="1.5"/>
<path d="M136.791 32.1405C133.966 33.7205 130.678 34.2659 127.494 33.6826L128.747 26.8415C130.339 27.1331 131.983 26.8605 133.396 26.0704L136.791 32.1405Z" fill="white" fill-opacity="0.75" stroke="#EEFD68" stroke-width="1.5"/>
<path d="M127.419 33.6691C124.239 33.0687 121.367 31.3778 119.299 28.8877L124.649 24.4441C125.683 25.6892 127.119 26.5346 128.709 26.8348L127.419 33.6691Z" fill="white" fill-opacity="0.75" stroke="#EEFD68" stroke-width="1.5"/>
<path d="M119.302 28.8903C117.233 26.4006 116.098 23.2675 116.091 20.0306L123.046 20.0158C123.049 21.6343 123.617 23.2008 124.651 24.4457L119.302 28.8903Z" fill="white" fill-opacity="0.75" stroke="#EEFD68" stroke-width="1.5"/>
<path d="M136.918 7.93352C139.726 9.54319 141.885 12.0819 143.023 15.1122L136.512 17.5569C135.943 16.0417 134.864 14.7724 133.46 13.9675L136.918 7.93352Z" fill="#FB5735" stroke="#EEFD68" stroke-width="1.5"/>
<path d="M116.091 19.9549C116.101 16.718 117.24 13.5862 119.312 11.0988L124.656 15.5494C123.62 16.7931 123.051 18.359 123.046 19.9775L116.091 19.9549Z" fill="white" fill-opacity="0.75" stroke="#EEFD68" stroke-width="1.5"/>
<path d="M119.331 11.0751C121.408 8.59231 124.285 6.9115 127.468 6.32224L128.734 13.161C127.143 13.4556 125.704 14.296 124.665 15.5374L119.331 11.0751Z" fill="white" fill-opacity="0.75" stroke="#EEFD68" stroke-width="1.5"/>
<path d="M127.543 6.308C130.729 5.73587 134.015 6.29274 136.834 7.88268L133.418 13.9408C132.008 13.1458 130.365 12.8674 128.772 13.1535L127.543 6.308Z" fill="#FB5735" stroke="#EEFD68" stroke-width="1.5"/>
</svg>
