<svg width="276" height="40" viewBox="0 0 276 40" fill="none" xmlns="http://www.w3.org/2000/svg">
<path d="M0 20C0 8.95431 8.9543 0 20 0H276V40H20C8.9543 40 0 31.0457 0 20Z" fill="#EEFD68"/>
<path d="M14.504 26V14.8H19.112C20.104 14.8 20.952 14.96 21.656 15.28C22.3707 15.6 22.92 16.0587 23.304 16.656C23.688 17.2533 23.88 17.9627 23.88 18.784C23.88 19.6053 23.688 20.3147 23.304 20.912C22.92 21.5093 22.3707 21.968 21.656 22.288C20.952 22.608 20.104 22.768 19.112 22.768H15.656L16.584 21.792V26H14.504ZM16.584 22.016L15.656 21.008H19.016C19.9333 21.008 20.6213 20.816 21.08 20.432C21.5493 20.0373 21.784 19.488 21.784 18.784C21.784 18.0693 21.5493 17.52 21.08 17.136C20.6213 16.752 19.9333 16.56 19.016 16.56H15.656L16.584 15.536V22.016ZM25.687 26V17.456H27.591V19.808L27.367 19.12C27.623 18.544 28.023 18.1067 28.567 17.808C29.1217 17.5093 29.8097 17.36 30.631 17.36V19.264C30.5457 19.2427 30.4657 19.232 30.391 19.232C30.3163 19.2213 30.2417 19.216 30.167 19.216C29.4097 19.216 28.807 19.44 28.359 19.888C27.911 20.3253 27.687 20.9813 27.687 21.856V26H25.687ZM32.3276 26V17.456H34.3276V26H32.3276ZM33.3356 16.048C32.9623 16.048 32.653 15.9307 32.4076 15.696C32.173 15.4613 32.0556 15.1787 32.0556 14.848C32.0556 14.5067 32.173 14.224 32.4076 14C32.653 13.7653 32.9623 13.648 33.3356 13.648C33.709 13.648 34.013 13.76 34.2476 13.984C34.493 14.1973 34.6156 14.4693 34.6156 14.8C34.6156 15.152 34.4983 15.4507 34.2636 15.696C34.029 15.9307 33.7196 16.048 33.3356 16.048ZM47.7366 17.36C48.4193 17.36 49.022 17.4933 49.5446 17.76C50.078 18.0267 50.494 18.4373 50.7926 18.992C51.0913 19.536 51.2406 20.24 51.2406 21.104V26H49.2406V21.36C49.2406 20.6027 49.0753 20.0373 48.7446 19.664C48.414 19.2907 47.9393 19.104 47.3206 19.104C46.8833 19.104 46.494 19.2 46.1526 19.392C45.822 19.584 45.5606 19.8667 45.3686 20.24C45.1873 20.6133 45.0966 21.088 45.0966 21.664V26H43.0966V21.36C43.0966 20.6027 42.9313 20.0373 42.6006 19.664C42.27 19.2907 41.7953 19.104 41.1766 19.104C40.7393 19.104 40.35 19.2 40.0086 19.392C39.678 19.584 39.4166 19.8667 39.2246 20.24C39.0433 20.6133 38.9526 21.088 38.9526 21.664V26H36.9526V17.456H38.8566V19.728L38.5206 19.056C38.8086 18.5013 39.2246 18.08 39.7686 17.792C40.3233 17.504 40.9526 17.36 41.6566 17.36C42.4566 17.36 43.15 17.5573 43.7366 17.952C44.334 18.3467 44.7286 18.944 44.9206 19.744L44.1366 19.472C44.414 18.832 44.8726 18.32 45.5126 17.936C46.1526 17.552 46.894 17.36 47.7366 17.36ZM57.828 26.112C56.8787 26.112 56.0467 25.9253 55.332 25.552C54.628 25.168 54.0787 24.6453 53.684 23.984C53.3 23.3227 53.108 22.5707 53.108 21.728C53.108 20.8747 53.2947 20.1227 53.668 19.472C54.052 18.8107 54.5747 18.2933 55.236 17.92C55.908 17.5467 56.6707 17.36 57.524 17.36C58.356 17.36 59.0973 17.5413 59.748 17.904C60.3987 18.2667 60.9107 18.7787 61.284 19.44C61.6573 20.1013 61.844 20.88 61.844 21.776C61.844 21.8613 61.8387 21.9573 61.828 22.064C61.828 22.1707 61.8227 22.272 61.812 22.368H54.692V21.04H60.756L59.972 21.456C59.9827 20.9653 59.8813 20.5333 59.668 20.16C59.4547 19.7867 59.1613 19.4933 58.788 19.28C58.4253 19.0667 58.004 18.96 57.524 18.96C57.0333 18.96 56.6013 19.0667 56.228 19.28C55.8653 19.4933 55.5773 19.792 55.364 20.176C55.1613 20.5493 55.06 20.992 55.06 21.504V21.824C55.06 22.336 55.1773 22.7893 55.412 23.184C55.6467 23.5787 55.9773 23.8827 56.404 24.096C56.8307 24.3093 57.3213 24.416 57.876 24.416C58.356 24.416 58.788 24.3413 59.172 24.192C59.556 24.0427 59.8973 23.808 60.196 23.488L61.268 24.72C60.884 25.168 60.3987 25.5147 59.812 25.76C59.236 25.9947 58.5747 26.112 57.828 26.112ZM63.7651 26V17.456H65.6691V19.808L65.4451 19.12C65.7011 18.544 66.1011 18.1067 66.6451 17.808C67.1998 17.5093 67.8878 17.36 68.7091 17.36V19.264C68.6238 19.2427 68.5438 19.232 68.4691 19.232C68.3945 19.2213 68.3198 19.216 68.2451 19.216C67.4878 19.216 66.8851 19.44 66.4371 19.888C65.9891 20.3253 65.7651 20.9813 65.7651 21.856V26H63.7651ZM75.0978 26V14.8H79.9938C81.2098 14.8 82.2764 15.0347 83.1938 15.504C84.1111 15.9733 84.8258 16.624 85.3378 17.456C85.8498 18.288 86.1058 19.2693 86.1058 20.4C86.1058 21.52 85.8498 22.5013 85.3378 23.344C84.8258 24.176 84.1111 24.8267 83.1938 25.296C82.2764 25.7653 81.2098 26 79.9938 26H75.0978ZM77.1778 24.24H79.8978C80.7404 24.24 81.4658 24.08 82.0738 23.76C82.6924 23.44 83.1671 22.992 83.4978 22.416C83.8391 21.84 84.0098 21.168 84.0098 20.4C84.0098 19.6213 83.8391 18.9493 83.4978 18.384C83.1671 17.808 82.6924 17.36 82.0738 17.04C81.4658 16.72 80.7404 16.56 79.8978 16.56H77.1778V24.24ZM92.1405 26.112C91.1912 26.112 90.3592 25.9253 89.6445 25.552C88.9405 25.168 88.3912 24.6453 87.9965 23.984C87.6125 23.3227 87.4205 22.5707 87.4205 21.728C87.4205 20.8747 87.6072 20.1227 87.9805 19.472C88.3645 18.8107 88.8872 18.2933 89.5485 17.92C90.2205 17.5467 90.9832 17.36 91.8365 17.36C92.6685 17.36 93.4098 17.5413 94.0605 17.904C94.7112 18.2667 95.2232 18.7787 95.5965 19.44C95.9698 20.1013 96.1565 20.88 96.1565 21.776C96.1565 21.8613 96.1512 21.9573 96.1405 22.064C96.1405 22.1707 96.1352 22.272 96.1245 22.368H89.0045V21.04H95.0685L94.2845 21.456C94.2952 20.9653 94.1938 20.5333 93.9805 20.16C93.7672 19.7867 93.4738 19.4933 93.1005 19.28C92.7378 19.0667 92.3165 18.96 91.8365 18.96C91.3458 18.96 90.9138 19.0667 90.5405 19.28C90.1778 19.4933 89.8898 19.792 89.6765 20.176C89.4738 20.5493 89.3725 20.992 89.3725 21.504V21.824C89.3725 22.336 89.4898 22.7893 89.7245 23.184C89.9592 23.5787 90.2898 23.8827 90.7165 24.096C91.1432 24.3093 91.6338 24.416 92.1885 24.416C92.6685 24.416 93.1005 24.3413 93.4845 24.192C93.8685 24.0427 94.2098 23.808 94.5085 23.488L95.5805 24.72C95.1965 25.168 94.7112 25.5147 94.1245 25.76C93.5485 25.9947 92.8872 26.112 92.1405 26.112ZM102.814 26.112C102.088 26.112 101.443 25.952 100.878 25.632C100.312 25.312 99.8643 24.832 99.5336 24.192C99.2136 23.5413 99.0536 22.72 99.0536 21.728C99.0536 20.7253 99.219 19.904 99.5496 19.264C99.891 18.624 100.344 18.1493 100.91 17.84C101.486 17.52 102.12 17.36 102.814 17.36C103.656 17.36 104.398 17.5413 105.038 17.904C105.688 18.2667 106.2 18.7733 106.574 19.424C106.958 20.0747 107.15 20.8427 107.15 21.728C107.15 22.6133 106.958 23.3813 106.574 24.032C106.2 24.6827 105.688 25.1947 105.038 25.568C104.398 25.9307 103.656 26.112 102.814 26.112ZM98.0776 26V14.128H100.078V19.44L99.9176 21.712L99.9816 23.984V26H98.0776ZM102.59 24.4C103.07 24.4 103.496 24.2933 103.87 24.08C104.254 23.8667 104.558 23.5573 104.782 23.152C105.006 22.7467 105.118 22.272 105.118 21.728C105.118 21.1733 105.006 20.6987 104.782 20.304C104.558 19.8987 104.254 19.5893 103.87 19.376C103.496 19.1627 103.07 19.056 102.59 19.056C102.11 19.056 101.678 19.1627 101.294 19.376C100.91 19.5893 100.606 19.8987 100.382 20.304C100.158 20.6987 100.046 21.1733 100.046 21.728C100.046 22.272 100.158 22.7467 100.382 23.152C100.606 23.5573 100.91 23.8667 101.294 24.08C101.678 24.2933 102.11 24.4 102.59 24.4ZM114.201 26V24.272L114.089 23.904V20.88C114.089 20.2933 113.913 19.84 113.561 19.52C113.209 19.1893 112.676 19.024 111.961 19.024C111.481 19.024 111.006 19.0987 110.537 19.248C110.078 19.3973 109.689 19.6053 109.369 19.872L108.585 18.416C109.044 18.064 109.588 17.8027 110.217 17.632C110.857 17.4507 111.518 17.36 112.201 17.36C113.438 17.36 114.393 17.6587 115.065 18.256C115.748 18.8427 116.089 19.7547 116.089 20.992V26H114.201ZM111.513 26.112C110.873 26.112 110.313 26.0053 109.833 25.792C109.353 25.568 108.98 25.264 108.713 24.88C108.457 24.4853 108.329 24.0427 108.329 23.552C108.329 23.072 108.441 22.64 108.665 22.256C108.9 21.872 109.278 21.568 109.801 21.344C110.324 21.12 111.017 21.008 111.881 21.008H114.361V22.336H112.025C111.342 22.336 110.884 22.448 110.649 22.672C110.414 22.8853 110.297 23.152 110.297 23.472C110.297 23.8347 110.441 24.1227 110.729 24.336C111.017 24.5493 111.417 24.656 111.929 24.656C112.42 24.656 112.857 24.544 113.241 24.32C113.636 24.096 113.918 23.7653 114.089 23.328L114.425 24.528C114.233 25.0293 113.886 25.4187 113.385 25.696C112.894 25.9733 112.27 26.112 111.513 26.112ZM121.872 26.112C120.933 26.112 120.208 25.872 119.696 25.392C119.184 24.9013 118.928 24.1813 118.928 23.232V15.568H120.928V23.184C120.928 23.5893 121.029 23.904 121.232 24.128C121.445 24.352 121.738 24.464 122.112 24.464C122.56 24.464 122.933 24.3467 123.232 24.112L123.792 25.536C123.557 25.728 123.269 25.872 122.928 25.968C122.586 26.064 122.234 26.112 121.872 26.112ZM117.52 19.12V17.52H123.216V19.12H117.52ZM129.172 26.112C128.222 26.112 127.39 25.9253 126.676 25.552C125.972 25.168 125.422 24.6453 125.028 23.984C124.644 23.3227 124.452 22.5707 124.452 21.728C124.452 20.8747 124.638 20.1227 125.012 19.472C125.396 18.8107 125.918 18.2933 126.58 17.92C127.252 17.5467 128.014 17.36 128.868 17.36C129.7 17.36 130.441 17.5413 131.092 17.904C131.742 18.2667 132.254 18.7787 132.628 19.44C133.001 20.1013 133.188 20.88 133.188 21.776C133.188 21.8613 133.182 21.9573 133.172 22.064C133.172 22.1707 133.166 22.272 133.156 22.368H126.036V21.04H132.1L131.316 21.456C131.326 20.9653 131.225 20.5333 131.012 20.16C130.798 19.7867 130.505 19.4933 130.132 19.28C129.769 19.0667 129.348 18.96 128.868 18.96C128.377 18.96 127.945 19.0667 127.572 19.28C127.209 19.4933 126.921 19.792 126.708 20.176C126.505 20.5493 126.404 20.992 126.404 21.504V21.824C126.404 22.336 126.521 22.7893 126.756 23.184C126.99 23.5787 127.321 23.8827 127.748 24.096C128.174 24.3093 128.665 24.416 129.22 24.416C129.7 24.416 130.132 24.3413 130.516 24.192C130.9 24.0427 131.241 23.808 131.54 23.488L132.612 24.72C132.228 25.168 131.742 25.5147 131.156 25.76C130.58 25.9947 129.918 26.112 129.172 26.112ZM139.099 22.384V20.72H143.499V22.384H139.099ZM155.485 26.16C154.632 26.16 153.837 26.0213 153.101 25.744C152.376 25.456 151.741 25.056 151.197 24.544C150.664 24.0213 150.248 23.408 149.949 22.704C149.65 22 149.501 21.232 149.501 20.4C149.501 19.568 149.65 18.8 149.949 18.096C150.248 17.392 150.669 16.784 151.213 16.272C151.757 15.7493 152.392 15.3493 153.117 15.072C153.842 14.784 154.637 14.64 155.501 14.64C156.418 14.64 157.256 14.8 158.013 15.12C158.77 15.4293 159.41 15.8933 159.933 16.512L158.589 17.776C158.184 17.3387 157.73 17.0133 157.229 16.8C156.728 16.576 156.184 16.464 155.597 16.464C155.01 16.464 154.472 16.56 153.981 16.752C153.501 16.944 153.08 17.216 152.717 17.568C152.365 17.92 152.088 18.336 151.885 18.816C151.693 19.296 151.597 19.824 151.597 20.4C151.597 20.976 151.693 21.504 151.885 21.984C152.088 22.464 152.365 22.88 152.717 23.232C153.08 23.584 153.501 23.856 153.981 24.048C154.472 24.24 155.01 24.336 155.597 24.336C156.184 24.336 156.728 24.2293 157.229 24.016C157.73 23.792 158.184 23.456 158.589 23.008L159.933 24.288C159.41 24.896 158.77 25.36 158.013 25.68C157.256 26 156.413 26.16 155.485 26.16ZM165.246 26.112C164.371 26.112 163.592 25.9253 162.91 25.552C162.227 25.168 161.688 24.6453 161.294 23.984C160.899 23.3227 160.702 22.5707 160.702 21.728C160.702 20.8747 160.899 20.1227 161.294 19.472C161.688 18.8107 162.227 18.2933 162.91 17.92C163.592 17.5467 164.371 17.36 165.246 17.36C166.131 17.36 166.915 17.5467 167.598 17.92C168.291 18.2933 168.83 18.8053 169.214 19.456C169.608 20.1067 169.806 20.864 169.806 21.728C169.806 22.5707 169.608 23.3227 169.214 23.984C168.83 24.6453 168.291 25.168 167.598 25.552C166.915 25.9253 166.131 26.112 165.246 26.112ZM165.246 24.4C165.736 24.4 166.174 24.2933 166.558 24.08C166.942 23.8667 167.24 23.5573 167.454 23.152C167.678 22.7467 167.79 22.272 167.79 21.728C167.79 21.1733 167.678 20.6987 167.454 20.304C167.24 19.8987 166.942 19.5893 166.558 19.376C166.174 19.1627 165.742 19.056 165.262 19.056C164.771 19.056 164.334 19.1627 163.95 19.376C163.576 19.5893 163.278 19.8987 163.054 20.304C162.83 20.6987 162.718 21.1733 162.718 21.728C162.718 22.272 162.83 22.7467 163.054 23.152C163.278 23.5573 163.576 23.8667 163.95 24.08C164.334 24.2933 164.766 24.4 165.246 24.4ZM182.502 17.36C183.185 17.36 183.788 17.4933 184.31 17.76C184.844 18.0267 185.26 18.4373 185.558 18.992C185.857 19.536 186.006 20.24 186.006 21.104V26H184.006V21.36C184.006 20.6027 183.841 20.0373 183.51 19.664C183.18 19.2907 182.705 19.104 182.086 19.104C181.649 19.104 181.26 19.2 180.918 19.392C180.588 19.584 180.326 19.8667 180.134 20.24C179.953 20.6133 179.862 21.088 179.862 21.664V26H177.862V21.36C177.862 20.6027 177.697 20.0373 177.366 19.664C177.036 19.2907 176.561 19.104 175.942 19.104C175.505 19.104 175.116 19.2 174.774 19.392C174.444 19.584 174.182 19.8667 173.99 20.24C173.809 20.6133 173.718 21.088 173.718 21.664V26H171.718V17.456H173.622V19.728L173.286 19.056C173.574 18.5013 173.99 18.08 174.534 17.792C175.089 17.504 175.718 17.36 176.422 17.36C177.222 17.36 177.916 17.5573 178.502 17.952C179.1 18.3467 179.494 18.944 179.686 19.744L178.902 19.472C179.18 18.832 179.638 18.32 180.278 17.936C180.918 17.552 181.66 17.36 182.502 17.36ZM188.562 26V17.456H190.562V26H188.562ZM189.57 16.048C189.197 16.048 188.887 15.9307 188.642 15.696C188.407 15.4613 188.29 15.1787 188.29 14.848C188.29 14.5067 188.407 14.224 188.642 14C188.887 13.7653 189.197 13.648 189.57 13.648C189.943 13.648 190.247 13.76 190.482 13.984C190.727 14.1973 190.85 14.4693 190.85 14.8C190.85 15.152 190.733 15.4507 190.498 15.696C190.263 15.9307 189.954 16.048 189.57 16.048ZM195.827 26.112C195.112 26.112 194.424 26.0213 193.763 25.84C193.112 25.648 192.595 25.4187 192.211 25.152L192.979 23.632C193.363 23.8773 193.822 24.08 194.355 24.24C194.888 24.4 195.422 24.48 195.955 24.48C196.584 24.48 197.038 24.3947 197.315 24.224C197.603 24.0533 197.747 23.824 197.747 23.536C197.747 23.3013 197.651 23.1253 197.459 23.008C197.267 22.88 197.016 22.784 196.707 22.72C196.398 22.656 196.051 22.5973 195.667 22.544C195.294 22.4907 194.915 22.4213 194.531 22.336C194.158 22.24 193.816 22.1067 193.507 21.936C193.198 21.7547 192.947 21.5147 192.755 21.216C192.563 20.9173 192.467 20.5227 192.467 20.032C192.467 19.488 192.622 19.0187 192.931 18.624C193.24 18.2187 193.672 17.9093 194.227 17.696C194.792 17.472 195.459 17.36 196.227 17.36C196.803 17.36 197.384 17.424 197.971 17.552C198.558 17.68 199.043 17.8613 199.427 18.096L198.659 19.616C198.254 19.3707 197.843 19.2053 197.427 19.12C197.022 19.024 196.616 18.976 196.211 18.976C195.603 18.976 195.15 19.0667 194.851 19.248C194.563 19.4293 194.419 19.6587 194.419 19.936C194.419 20.192 194.515 20.384 194.707 20.512C194.899 20.64 195.15 20.7413 195.459 20.816C195.768 20.8907 196.11 20.9547 196.483 21.008C196.867 21.0507 197.246 21.12 197.619 21.216C197.992 21.312 198.334 21.4453 198.643 21.616C198.963 21.776 199.219 22.0053 199.411 22.304C199.603 22.6027 199.699 22.992 199.699 23.472C199.699 24.0053 199.539 24.4693 199.219 24.864C198.91 25.2587 198.467 25.568 197.891 25.792C197.315 26.0053 196.627 26.112 195.827 26.112ZM201.421 26V17.456H203.421V26H201.421ZM202.429 16.048C202.056 16.048 201.747 15.9307 201.501 15.696C201.267 15.4613 201.149 15.1787 201.149 14.848C201.149 14.5067 201.267 14.224 201.501 14C201.747 13.7653 202.056 13.648 202.429 13.648C202.803 13.648 203.107 13.76 203.341 13.984C203.587 14.1973 203.709 14.4693 203.709 14.8C203.709 15.152 203.592 15.4507 203.357 15.696C203.123 15.9307 202.813 16.048 202.429 16.048ZM209.886 26.112C209.012 26.112 208.233 25.9253 207.55 25.552C206.868 25.168 206.329 24.6453 205.934 23.984C205.54 23.3227 205.342 22.5707 205.342 21.728C205.342 20.8747 205.54 20.1227 205.934 19.472C206.329 18.8107 206.868 18.2933 207.55 17.92C208.233 17.5467 209.012 17.36 209.886 17.36C210.772 17.36 211.556 17.5467 212.238 17.92C212.932 18.2933 213.47 18.8053 213.854 19.456C214.249 20.1067 214.446 20.864 214.446 21.728C214.446 22.5707 214.249 23.3227 213.854 23.984C213.47 24.6453 212.932 25.168 212.238 25.552C211.556 25.9253 210.772 26.112 209.886 26.112ZM209.886 24.4C210.377 24.4 210.814 24.2933 211.198 24.08C211.582 23.8667 211.881 23.5573 212.094 23.152C212.318 22.7467 212.43 22.272 212.43 21.728C212.43 21.1733 212.318 20.6987 212.094 20.304C211.881 19.8987 211.582 19.5893 211.198 19.376C210.814 19.1627 210.382 19.056 209.902 19.056C209.412 19.056 208.974 19.1627 208.59 19.376C208.217 19.5893 207.918 19.8987 207.694 20.304C207.47 20.6987 207.358 21.1733 207.358 21.728C207.358 22.272 207.47 22.7467 207.694 23.152C207.918 23.5573 208.217 23.8667 208.59 24.08C208.974 24.2933 209.406 24.4 209.886 24.4ZM208.526 16.288L210.686 14.096H213.038L210.254 16.288H208.526ZM221.207 17.36C221.89 17.36 222.498 17.4933 223.031 17.76C223.575 18.0267 224.002 18.4373 224.311 18.992C224.62 19.536 224.775 20.24 224.775 21.104V26H222.775V21.36C222.775 20.6027 222.594 20.0373 222.231 19.664C221.879 19.2907 221.383 19.104 220.743 19.104C220.274 19.104 219.858 19.2 219.495 19.392C219.132 19.584 218.85 19.872 218.647 20.256C218.455 20.6293 218.359 21.104 218.359 21.68V26H216.359V17.456H218.263V19.76L217.927 19.056C218.226 18.512 218.658 18.096 219.223 17.808C219.799 17.5093 220.46 17.36 221.207 17.36Z" fill="#010704"/>
<path d="M264.164 15.5047C265.21 18.5679 265.155 21.9001 264.008 24.927L257.504 22.4631C258.077 20.9497 258.105 19.2836 257.582 17.752L264.164 15.5047Z" fill="#FB5735" stroke="#EEFD68" stroke-width="1.5"/>
<path d="M263.981 24.9979C262.818 28.0186 260.638 30.5392 257.817 32.1254L254.408 26.0628C255.819 25.2697 256.909 24.0094 257.491 22.499L263.981 24.9979Z" fill="white" fill-opacity="0.75" stroke="#EEFD68" stroke-width="1.5"/>
<path d="M257.791 32.1405C254.966 33.7205 251.678 34.2659 248.494 33.6826L249.747 26.8415C251.339 27.1331 252.983 26.8605 254.396 26.0704L257.791 32.1405Z" fill="white" fill-opacity="0.75" stroke="#EEFD68" stroke-width="1.5"/>
<path d="M248.419 33.6691C245.239 33.0687 242.367 31.3778 240.299 28.8877L245.649 24.4441C246.683 25.6892 248.119 26.5346 249.709 26.8348L248.419 33.6691Z" fill="white" fill-opacity="0.75" stroke="#EEFD68" stroke-width="1.5"/>
<path d="M240.302 28.8903C238.233 26.4006 237.098 23.2675 237.091 20.0306L244.046 20.0158C244.049 21.6343 244.617 23.2008 245.651 24.4457L240.302 28.8903Z" fill="white" fill-opacity="0.75" stroke="#EEFD68" stroke-width="1.5"/>
<path d="M257.918 7.93352C260.726 9.54319 262.885 12.0819 264.023 15.1122L257.512 17.5569C256.943 16.0417 255.864 14.7724 254.46 13.9675L257.918 7.93352Z" fill="#FB5735" stroke="#EEFD68" stroke-width="1.5"/>
<path d="M237.091 19.9549C237.101 16.718 238.24 13.5862 240.312 11.0988L245.656 15.5494C244.62 16.7931 244.051 18.359 244.046 19.9775L237.091 19.9549Z" fill="white" fill-opacity="0.75" stroke="#EEFD68" stroke-width="1.5"/>
<path d="M240.331 11.0751C242.408 8.59231 245.285 6.9115 248.468 6.32224L249.734 13.161C248.143 13.4556 246.704 14.296 245.665 15.5374L240.331 11.0751Z" fill="white" fill-opacity="0.75" stroke="#EEFD68" stroke-width="1.5"/>
<path d="M248.543 6.308C251.729 5.73587 255.015 6.29274 257.834 7.88268L254.418 13.9408C253.008 13.1458 251.365 12.8674 249.772 13.1535L248.543 6.308Z" fill="#FB5735" stroke="#EEFD68" stroke-width="1.5"/>
</svg>
