<svg width="285" height="40" viewBox="0 0 285 40" fill="none" xmlns="http://www.w3.org/2000/svg">
<path d="M0 20C0 8.95431 8.95431 0 20 0H285V40H20C8.9543 40 0 31.0457 0 20Z" fill="#EEFD68"/>
<path d="M18.101 26.16C17.2263 26.16 16.389 26.0373 15.589 25.792C14.789 25.536 14.1543 25.2107 13.685 24.816L14.405 23.2C14.853 23.552 15.4077 23.8453 16.069 24.08C16.7303 24.3147 17.4077 24.432 18.101 24.432C18.6877 24.432 19.1623 24.368 19.525 24.24C19.8877 24.112 20.1543 23.9413 20.325 23.728C20.4957 23.504 20.581 23.2533 20.581 22.976C20.581 22.6347 20.4583 22.3627 20.213 22.16C19.9677 21.9467 19.6477 21.7813 19.253 21.664C18.869 21.536 18.437 21.4187 17.957 21.312C17.4877 21.2053 17.013 21.0827 16.533 20.944C16.0637 20.7947 15.6317 20.608 15.237 20.384C14.853 20.1493 14.5383 19.84 14.293 19.456C14.0477 19.072 13.925 18.5813 13.925 17.984C13.925 17.376 14.085 16.8213 14.405 16.32C14.7357 15.808 15.2317 15.4027 15.893 15.104C16.565 14.7947 17.413 14.64 18.437 14.64C19.109 14.64 19.7757 14.7253 20.437 14.896C21.0983 15.0667 21.6743 15.312 22.165 15.632L21.509 17.248C21.0077 16.9493 20.4903 16.7307 19.957 16.592C19.4237 16.4427 18.9117 16.368 18.421 16.368C17.845 16.368 17.3757 16.4373 17.013 16.576C16.661 16.7147 16.3997 16.896 16.229 17.12C16.069 17.344 15.989 17.6 15.989 17.888C15.989 18.2293 16.1063 18.5067 16.341 18.72C16.5863 18.9227 16.901 19.0827 17.285 19.2C17.6797 19.3173 18.117 19.4347 18.597 19.552C19.077 19.6587 19.5517 19.7813 20.021 19.92C20.501 20.0587 20.933 20.24 21.317 20.464C21.7117 20.688 22.0263 20.992 22.261 21.376C22.5063 21.76 22.629 22.2453 22.629 22.832C22.629 23.4293 22.4637 23.984 22.133 24.496C21.813 24.9973 21.317 25.4027 20.645 25.712C19.973 26.0107 19.125 26.16 18.101 26.16ZM28.5155 26.112C27.5662 26.112 26.7342 25.9253 26.0195 25.552C25.3155 25.168 24.7662 24.6453 24.3715 23.984C23.9875 23.3227 23.7955 22.5707 23.7955 21.728C23.7955 20.8747 23.9822 20.1227 24.3555 19.472C24.7395 18.8107 25.2622 18.2933 25.9235 17.92C26.5955 17.5467 27.3582 17.36 28.2115 17.36C29.0435 17.36 29.7848 17.5413 30.4355 17.904C31.0862 18.2667 31.5982 18.7787 31.9715 19.44C32.3448 20.1013 32.5315 20.88 32.5315 21.776C32.5315 21.8613 32.5262 21.9573 32.5155 22.064C32.5155 22.1707 32.5102 22.272 32.4995 22.368H25.3795V21.04H31.4435L30.6595 21.456C30.6702 20.9653 30.5688 20.5333 30.3555 20.16C30.1422 19.7867 29.8488 19.4933 29.4755 19.28C29.1128 19.0667 28.6915 18.96 28.2115 18.96C27.7208 18.96 27.2888 19.0667 26.9155 19.28C26.5528 19.4933 26.2648 19.792 26.0515 20.176C25.8488 20.5493 25.7475 20.992 25.7475 21.504V21.824C25.7475 22.336 25.8648 22.7893 26.0995 23.184C26.3342 23.5787 26.6648 23.8827 27.0915 24.096C27.5182 24.3093 28.0088 24.416 28.5635 24.416C29.0435 24.416 29.4755 24.3413 29.8595 24.192C30.2435 24.0427 30.5848 23.808 30.8835 23.488L31.9555 24.72C31.5715 25.168 31.0862 25.5147 30.4995 25.76C29.9235 25.9947 29.2622 26.112 28.5155 26.112ZM38.3246 29.216C37.5353 29.216 36.762 29.1093 36.0046 28.896C35.258 28.6933 34.6446 28.3947 34.1646 28L35.0606 26.496C35.434 26.8053 35.9033 27.0507 36.4686 27.232C37.0446 27.424 37.626 27.52 38.2126 27.52C39.1513 27.52 39.8393 27.3013 40.2766 26.864C40.714 26.4373 40.9326 25.792 40.9326 24.928V23.408L41.0926 21.472L41.0286 19.536V17.456H42.9326V24.704C42.9326 26.2507 42.538 27.3867 41.7486 28.112C40.9593 28.848 39.818 29.216 38.3246 29.216ZM38.0686 25.616C37.258 25.616 36.522 25.4453 35.8606 25.104C35.21 24.752 34.6926 24.2667 34.3086 23.648C33.9353 23.0293 33.7486 22.304 33.7486 21.472C33.7486 20.6507 33.9353 19.9307 34.3086 19.312C34.6926 18.6933 35.21 18.2133 35.8606 17.872C36.522 17.5307 37.258 17.36 38.0686 17.36C38.794 17.36 39.4446 17.504 40.0206 17.792C40.5966 18.08 41.0553 18.528 41.3966 19.136C41.7486 19.744 41.9246 20.5227 41.9246 21.472C41.9246 22.4213 41.7486 23.2053 41.3966 23.824C41.0553 24.432 40.5966 24.8853 40.0206 25.184C39.4446 25.472 38.794 25.616 38.0686 25.616ZM38.3726 23.92C38.874 23.92 39.322 23.8187 39.7166 23.616C40.1113 23.4027 40.4153 23.1147 40.6286 22.752C40.8526 22.3787 40.9646 21.952 40.9646 21.472C40.9646 20.992 40.8526 20.5707 40.6286 20.208C40.4153 19.8347 40.1113 19.552 39.7166 19.36C39.322 19.1573 38.874 19.056 38.3726 19.056C37.8713 19.056 37.418 19.1573 37.0126 19.36C36.618 19.552 36.3086 19.8347 36.0846 20.208C35.8713 20.5707 35.7646 20.992 35.7646 21.472C35.7646 21.952 35.8713 22.3787 36.0846 22.752C36.3086 23.1147 36.618 23.4027 37.0126 23.616C37.418 23.8187 37.8713 23.92 38.3726 23.92ZM49.178 26.112C48.4527 26.112 47.8127 25.9787 47.258 25.712C46.7033 25.4347 46.2713 25.0187 45.962 24.464C45.6527 23.8987 45.498 23.1893 45.498 22.336V17.456H47.498V22.064C47.498 22.832 47.6687 23.408 48.01 23.792C48.362 24.1653 48.858 24.352 49.498 24.352C49.9673 24.352 50.3727 24.256 50.714 24.064C51.066 23.872 51.338 23.584 51.53 23.2C51.7327 22.816 51.834 22.3413 51.834 21.776V17.456H53.834V26H51.93V23.696L52.266 24.4C51.978 24.9547 51.5567 25.3813 51.002 25.68C50.4473 25.968 49.8393 26.112 49.178 26.112ZM61.3006 17.36C61.9833 17.36 62.5913 17.4933 63.1246 17.76C63.6686 18.0267 64.0953 18.4373 64.4046 18.992C64.714 19.536 64.8686 20.24 64.8686 21.104V26H62.8686V21.36C62.8686 20.6027 62.6873 20.0373 62.3246 19.664C61.9726 19.2907 61.4766 19.104 60.8366 19.104C60.3673 19.104 59.9513 19.2 59.5886 19.392C59.226 19.584 58.9433 19.872 58.7406 20.256C58.5486 20.6293 58.4526 21.104 58.4526 21.68V26H56.4526V17.456H58.3566V19.76L58.0206 19.056C58.3193 18.512 58.7513 18.096 59.3166 17.808C59.8926 17.5093 60.554 17.36 61.3006 17.36ZM71.0374 26.112C70.216 26.112 69.4747 25.9307 68.8134 25.568C68.1627 25.1947 67.6507 24.6827 67.2774 24.032C66.904 23.3813 66.7174 22.6133 66.7174 21.728C66.7174 20.8427 66.904 20.0747 67.2774 19.424C67.6507 18.7733 68.1627 18.2667 68.8134 17.904C69.4747 17.5413 70.216 17.36 71.0374 17.36C71.752 17.36 72.392 17.52 72.9574 17.84C73.5227 18.1493 73.9707 18.624 74.3014 19.264C74.632 19.904 74.7974 20.7253 74.7974 21.728C74.7974 22.72 74.6374 23.5413 74.3174 24.192C73.9974 24.832 73.5547 25.312 72.9894 25.632C72.424 25.952 71.7734 26.112 71.0374 26.112ZM71.2774 24.4C71.7574 24.4 72.184 24.2933 72.5574 24.08C72.9414 23.8667 73.2454 23.5573 73.4694 23.152C73.704 22.7467 73.8214 22.272 73.8214 21.728C73.8214 21.1733 73.704 20.6987 73.4694 20.304C73.2454 19.8987 72.9414 19.5893 72.5574 19.376C72.184 19.1627 71.7574 19.056 71.2774 19.056C70.7974 19.056 70.3654 19.1627 69.9814 19.376C69.608 19.5893 69.304 19.8987 69.0694 20.304C68.8454 20.6987 68.7334 21.1733 68.7334 21.728C68.7334 22.272 68.8454 22.7467 69.0694 23.152C69.304 23.5573 69.608 23.8667 69.9814 24.08C70.3654 24.2933 70.7974 24.4 71.2774 24.4ZM73.8694 26V23.984L73.9494 21.712L73.7894 19.44V14.128H75.7734V26H73.8694ZM82.2458 26.112C81.3711 26.112 80.5924 25.9253 79.9098 25.552C79.2271 25.168 78.6884 24.6453 78.2938 23.984C77.8991 23.3227 77.7018 22.5707 77.7018 21.728C77.7018 20.8747 77.8991 20.1227 78.2938 19.472C78.6884 18.8107 79.2271 18.2933 79.9098 17.92C80.5924 17.5467 81.3711 17.36 82.2458 17.36C83.1311 17.36 83.9151 17.5467 84.5978 17.92C85.2911 18.2933 85.8298 18.8053 86.2138 19.456C86.6084 20.1067 86.8058 20.864 86.8058 21.728C86.8058 22.5707 86.6084 23.3227 86.2138 23.984C85.8298 24.6453 85.2911 25.168 84.5978 25.552C83.9151 25.9253 83.1311 26.112 82.2458 26.112ZM82.2458 24.4C82.7364 24.4 83.1738 24.2933 83.5578 24.08C83.9418 23.8667 84.2404 23.5573 84.4538 23.152C84.6778 22.7467 84.7898 22.272 84.7898 21.728C84.7898 21.1733 84.6778 20.6987 84.4538 20.304C84.2404 19.8987 83.9418 19.5893 83.5578 19.376C83.1738 19.1627 82.7418 19.056 82.2618 19.056C81.7711 19.056 81.3338 19.1627 80.9498 19.376C80.5764 19.5893 80.2778 19.8987 80.0538 20.304C79.8298 20.6987 79.7178 21.1733 79.7178 21.728C79.7178 22.272 79.8298 22.7467 80.0538 23.152C80.2778 23.5573 80.5764 23.8667 80.9498 24.08C81.3338 24.2933 81.7658 24.4 82.2458 24.4ZM93.3321 26V14.8H98.2281C99.4441 14.8 100.511 15.0347 101.428 15.504C102.345 15.9733 103.06 16.624 103.572 17.456C104.084 18.288 104.34 19.2693 104.34 20.4C104.34 21.52 104.084 22.5013 103.572 23.344C103.06 24.176 102.345 24.8267 101.428 25.296C100.511 25.7653 99.4441 26 98.2281 26H93.3321ZM95.4121 24.24H98.1321C98.9748 24.24 99.7001 24.08 100.308 23.76C100.927 23.44 101.401 22.992 101.732 22.416C102.073 21.84 102.244 21.168 102.244 20.4C102.244 19.6213 102.073 18.9493 101.732 18.384C101.401 17.808 100.927 17.36 100.308 17.04C99.7001 16.72 98.9748 16.56 98.1321 16.56H95.4121V24.24ZM110.375 26.112C109.426 26.112 108.594 25.9253 107.879 25.552C107.175 25.168 106.626 24.6453 106.231 23.984C105.847 23.3227 105.655 22.5707 105.655 21.728C105.655 20.8747 105.842 20.1227 106.215 19.472C106.599 18.8107 107.122 18.2933 107.783 17.92C108.455 17.5467 109.218 17.36 110.071 17.36C110.903 17.36 111.644 17.5413 112.295 17.904C112.946 18.2667 113.458 18.7787 113.831 19.44C114.204 20.1013 114.391 20.88 114.391 21.776C114.391 21.8613 114.386 21.9573 114.375 22.064C114.375 22.1707 114.37 22.272 114.359 22.368H107.239V21.04H113.303L112.519 21.456C112.53 20.9653 112.428 20.5333 112.215 20.16C112.002 19.7867 111.708 19.4933 111.335 19.28C110.972 19.0667 110.551 18.96 110.071 18.96C109.58 18.96 109.148 19.0667 108.775 19.28C108.412 19.4933 108.124 19.792 107.911 20.176C107.708 20.5493 107.607 20.992 107.607 21.504V21.824C107.607 22.336 107.724 22.7893 107.959 23.184C108.194 23.5787 108.524 23.8827 108.951 24.096C109.378 24.3093 109.868 24.416 110.423 24.416C110.903 24.416 111.335 24.3413 111.719 24.192C112.103 24.0427 112.444 23.808 112.743 23.488L113.815 24.72C113.431 25.168 112.946 25.5147 112.359 25.76C111.783 25.9947 111.122 26.112 110.375 26.112ZM121.048 26.112C120.323 26.112 119.677 25.952 119.112 25.632C118.547 25.312 118.099 24.832 117.768 24.192C117.448 23.5413 117.288 22.72 117.288 21.728C117.288 20.7253 117.453 19.904 117.784 19.264C118.125 18.624 118.579 18.1493 119.144 17.84C119.72 17.52 120.355 17.36 121.048 17.36C121.891 17.36 122.632 17.5413 123.272 17.904C123.923 18.2667 124.435 18.7733 124.808 19.424C125.192 20.0747 125.384 20.8427 125.384 21.728C125.384 22.6133 125.192 23.3813 124.808 24.032C124.435 24.6827 123.923 25.1947 123.272 25.568C122.632 25.9307 121.891 26.112 121.048 26.112ZM116.312 26V14.128H118.312V19.44L118.152 21.712L118.216 23.984V26H116.312ZM120.824 24.4C121.304 24.4 121.731 24.2933 122.104 24.08C122.488 23.8667 122.792 23.5573 123.016 23.152C123.24 22.7467 123.352 22.272 123.352 21.728C123.352 21.1733 123.24 20.6987 123.016 20.304C122.792 19.8987 122.488 19.5893 122.104 19.376C121.731 19.1627 121.304 19.056 120.824 19.056C120.344 19.056 119.912 19.1627 119.528 19.376C119.144 19.5893 118.84 19.8987 118.616 20.304C118.392 20.6987 118.28 21.1733 118.28 21.728C118.28 22.272 118.392 22.7467 118.616 23.152C118.84 23.5573 119.144 23.8667 119.528 24.08C119.912 24.2933 120.344 24.4 120.824 24.4ZM132.435 26V24.272L132.323 23.904V20.88C132.323 20.2933 132.147 19.84 131.795 19.52C131.443 19.1893 130.91 19.024 130.195 19.024C129.715 19.024 129.241 19.0987 128.771 19.248C128.313 19.3973 127.923 19.6053 127.603 19.872L126.819 18.416C127.278 18.064 127.822 17.8027 128.451 17.632C129.091 17.4507 129.753 17.36 130.435 17.36C131.673 17.36 132.627 17.6587 133.299 18.256C133.982 18.8427 134.323 19.7547 134.323 20.992V26H132.435ZM129.747 26.112C129.107 26.112 128.547 26.0053 128.067 25.792C127.587 25.568 127.214 25.264 126.947 24.88C126.691 24.4853 126.563 24.0427 126.563 23.552C126.563 23.072 126.675 22.64 126.899 22.256C127.134 21.872 127.513 21.568 128.035 21.344C128.558 21.12 129.251 21.008 130.115 21.008H132.595V22.336H130.259C129.577 22.336 129.118 22.448 128.883 22.672C128.649 22.8853 128.531 23.152 128.531 23.472C128.531 23.8347 128.675 24.1227 128.963 24.336C129.251 24.5493 129.651 24.656 130.163 24.656C130.654 24.656 131.091 24.544 131.475 24.32C131.87 24.096 132.153 23.7653 132.323 23.328L132.659 24.528C132.467 25.0293 132.121 25.4187 131.619 25.696C131.129 25.9733 130.505 26.112 129.747 26.112ZM140.106 26.112C139.167 26.112 138.442 25.872 137.93 25.392C137.418 24.9013 137.162 24.1813 137.162 23.232V15.568H139.162V23.184C139.162 23.5893 139.263 23.904 139.466 24.128C139.679 24.352 139.973 24.464 140.346 24.464C140.794 24.464 141.167 24.3467 141.466 24.112L142.026 25.536C141.791 25.728 141.503 25.872 141.162 25.968C140.821 26.064 140.469 26.112 140.106 26.112ZM135.754 19.12V17.52H141.45V19.12H135.754ZM147.406 26.112C146.457 26.112 145.625 25.9253 144.91 25.552C144.206 25.168 143.657 24.6453 143.262 23.984C142.878 23.3227 142.686 22.5707 142.686 21.728C142.686 20.8747 142.873 20.1227 143.246 19.472C143.63 18.8107 144.153 18.2933 144.814 17.92C145.486 17.5467 146.249 17.36 147.102 17.36C147.934 17.36 148.675 17.5413 149.326 17.904C149.977 18.2667 150.489 18.7787 150.862 19.44C151.235 20.1013 151.422 20.88 151.422 21.776C151.422 21.8613 151.417 21.9573 151.406 22.064C151.406 22.1707 151.401 22.272 151.39 22.368H144.27V21.04H150.334L149.55 21.456C149.561 20.9653 149.459 20.5333 149.246 20.16C149.033 19.7867 148.739 19.4933 148.366 19.28C148.003 19.0667 147.582 18.96 147.102 18.96C146.611 18.96 146.179 19.0667 145.806 19.28C145.443 19.4933 145.155 19.792 144.942 20.176C144.739 20.5493 144.638 20.992 144.638 21.504V21.824C144.638 22.336 144.755 22.7893 144.99 23.184C145.225 23.5787 145.555 23.8827 145.982 24.096C146.409 24.3093 146.899 24.416 147.454 24.416C147.934 24.416 148.366 24.3413 148.75 24.192C149.134 24.0427 149.475 23.808 149.774 23.488L150.846 24.72C150.462 25.168 149.977 25.5147 149.39 25.76C148.814 25.9947 148.153 26.112 147.406 26.112ZM157.333 22.384V20.72H161.733V22.384H157.333ZM168.535 26V14.8H173.143C174.135 14.8 174.983 14.96 175.687 15.28C176.402 15.6 176.951 16.0587 177.335 16.656C177.719 17.2533 177.911 17.9627 177.911 18.784C177.911 19.6053 177.719 20.3147 177.335 20.912C176.951 21.5093 176.402 21.968 175.687 22.288C174.983 22.608 174.135 22.768 173.143 22.768H169.687L170.615 21.792V26H168.535ZM170.615 22.016L169.687 21.008H173.047C173.965 21.008 174.653 20.816 175.111 20.432C175.581 20.0373 175.815 19.488 175.815 18.784C175.815 18.0693 175.581 17.52 175.111 17.136C174.653 16.752 173.965 16.56 173.047 16.56H169.687L170.615 15.536V22.016ZM179.953 26V14.128H181.953V26H179.953ZM188.594 26.112C187.644 26.112 186.812 25.9253 186.098 25.552C185.394 25.168 184.844 24.6453 184.45 23.984C184.066 23.3227 183.874 22.5707 183.874 21.728C183.874 20.8747 184.06 20.1227 184.434 19.472C184.818 18.8107 185.34 18.2933 186.002 17.92C186.674 17.5467 187.436 17.36 188.29 17.36C189.122 17.36 189.863 17.5413 190.514 17.904C191.164 18.2667 191.676 18.7787 192.05 19.44C192.423 20.1013 192.61 20.88 192.61 21.776C192.61 21.8613 192.604 21.9573 192.594 22.064C192.594 22.1707 192.588 22.272 192.578 22.368H185.458V21.04H191.522L190.738 21.456C190.748 20.9653 190.647 20.5333 190.434 20.16C190.22 19.7867 189.927 19.4933 189.554 19.28C189.191 19.0667 188.77 18.96 188.29 18.96C187.799 18.96 187.367 19.0667 186.994 19.28C186.631 19.4933 186.343 19.792 186.13 20.176C185.927 20.5493 185.826 20.992 185.826 21.504V21.824C185.826 22.336 185.943 22.7893 186.178 23.184C186.412 23.5787 186.743 23.8827 187.17 24.096C187.596 24.3093 188.087 24.416 188.642 24.416C189.122 24.416 189.554 24.3413 189.938 24.192C190.322 24.0427 190.663 23.808 190.962 23.488L192.034 24.72C191.65 25.168 191.164 25.5147 190.578 25.76C190.002 25.9947 189.34 26.112 188.594 26.112ZM199.379 17.36C200.061 17.36 200.669 17.4933 201.203 17.76C201.747 18.0267 202.173 18.4373 202.483 18.992C202.792 19.536 202.947 20.24 202.947 21.104V26H200.947V21.36C200.947 20.6027 200.765 20.0373 200.403 19.664C200.051 19.2907 199.555 19.104 198.915 19.104C198.445 19.104 198.029 19.2 197.667 19.392C197.304 19.584 197.021 19.872 196.819 20.256C196.627 20.6293 196.531 21.104 196.531 21.68V26H194.531V17.456H196.435V19.76L196.099 19.056C196.397 18.512 196.829 18.096 197.395 17.808C197.971 17.5093 198.632 17.36 199.379 17.36ZM210.748 26V24.272L210.636 23.904V20.88C210.636 20.2933 210.46 19.84 210.108 19.52C209.756 19.1893 209.223 19.024 208.508 19.024C208.028 19.024 207.553 19.0987 207.084 19.248C206.625 19.3973 206.236 19.6053 205.916 19.872L205.132 18.416C205.591 18.064 206.135 17.8027 206.764 17.632C207.404 17.4507 208.065 17.36 208.748 17.36C209.985 17.36 210.94 17.6587 211.612 18.256C212.295 18.8427 212.636 19.7547 212.636 20.992V26H210.748ZM208.06 26.112C207.42 26.112 206.86 26.0053 206.38 25.792C205.9 25.568 205.527 25.264 205.26 24.88C205.004 24.4853 204.876 24.0427 204.876 23.552C204.876 23.072 204.988 22.64 205.212 22.256C205.447 21.872 205.825 21.568 206.348 21.344C206.871 21.12 207.564 21.008 208.428 21.008H210.908V22.336H208.572C207.889 22.336 207.431 22.448 207.196 22.672C206.961 22.8853 206.844 23.152 206.844 23.472C206.844 23.8347 206.988 24.1227 207.276 24.336C207.564 24.5493 207.964 24.656 208.476 24.656C208.967 24.656 209.404 24.544 209.788 24.32C210.183 24.096 210.465 23.7653 210.636 23.328L210.972 24.528C210.78 25.0293 210.433 25.4187 209.932 25.696C209.441 25.9733 208.817 26.112 208.06 26.112ZM215.203 26V17.456H217.107V19.808L216.883 19.12C217.139 18.544 217.539 18.1067 218.083 17.808C218.637 17.5093 219.325 17.36 220.147 17.36V19.264C220.061 19.2427 219.981 19.232 219.907 19.232C219.832 19.2213 219.757 19.216 219.683 19.216C218.925 19.216 218.323 19.44 217.875 19.888C217.427 20.3253 217.203 20.9813 217.203 21.856V26H215.203ZM221.843 26V17.456H223.843V26H221.843ZM222.851 16.048C222.478 16.048 222.169 15.9307 221.923 15.696C221.689 15.4613 221.571 15.1787 221.571 14.848C221.571 14.5067 221.689 14.224 221.923 14C222.169 13.7653 222.478 13.648 222.851 13.648C223.225 13.648 223.529 13.76 223.763 13.984C224.009 14.1973 224.131 14.4693 224.131 14.8C224.131 15.152 224.014 15.4507 223.779 15.696C223.545 15.9307 223.235 16.048 222.851 16.048ZM231.732 26V24.272L231.62 23.904V20.88C231.62 20.2933 231.444 19.84 231.092 19.52C230.74 19.1893 230.207 19.024 229.492 19.024C229.012 19.024 228.538 19.0987 228.068 19.248C227.61 19.3973 227.22 19.6053 226.9 19.872L226.116 18.416C226.575 18.064 227.119 17.8027 227.748 17.632C228.388 17.4507 229.05 17.36 229.732 17.36C230.97 17.36 231.924 17.6587 232.596 18.256C233.279 18.8427 233.62 19.7547 233.62 20.992V26H231.732ZM229.044 26.112C228.404 26.112 227.844 26.0053 227.364 25.792C226.884 25.568 226.511 25.264 226.244 24.88C225.988 24.4853 225.86 24.0427 225.86 23.552C225.86 23.072 225.972 22.64 226.196 22.256C226.431 21.872 226.81 21.568 227.332 21.344C227.855 21.12 228.548 21.008 229.412 21.008H231.892V22.336H229.556C228.874 22.336 228.415 22.448 228.18 22.672C227.946 22.8853 227.828 23.152 227.828 23.472C227.828 23.8347 227.972 24.1227 228.26 24.336C228.548 24.5493 228.948 24.656 229.46 24.656C229.951 24.656 230.388 24.544 230.772 24.32C231.167 24.096 231.45 23.7653 231.62 23.328L231.956 24.528C231.764 25.0293 231.418 25.4187 230.916 25.696C230.426 25.9733 229.802 26.112 229.044 26.112Z" fill="#010704"/>
<path d="M273.164 15.5047C274.21 18.5679 274.155 21.9001 273.008 24.927L266.504 22.4631C267.077 20.9497 267.105 19.2836 266.582 17.752L273.164 15.5047Z" fill="#FB5735" stroke="#EEFD68" stroke-width="1.5"/>
<path d="M272.981 24.9979C271.818 28.0186 269.638 30.5392 266.817 32.1254L263.408 26.0628C264.819 25.2697 265.909 24.0094 266.491 22.499L272.981 24.9979Z" fill="#FB5735" stroke="#EEFD68" stroke-width="1.5"/>
<path d="M266.791 32.1405C263.966 33.7205 260.678 34.2659 257.494 33.6826L258.747 26.8415C260.339 27.1331 261.983 26.8605 263.396 26.0704L266.791 32.1405Z" fill="white" fill-opacity="0.75" stroke="#EEFD68" stroke-width="1.5"/>
<path d="M257.419 33.6691C254.239 33.0687 251.367 31.3778 249.299 28.8877L254.649 24.4441C255.683 25.6892 257.119 26.5346 258.709 26.8348L257.419 33.6691Z" fill="white" fill-opacity="0.75" stroke="#EEFD68" stroke-width="1.5"/>
<path d="M249.302 28.8903C247.233 26.4006 246.098 23.2675 246.091 20.0306L253.046 20.0158C253.049 21.6343 253.617 23.2008 254.651 24.4457L249.302 28.8903Z" fill="white" fill-opacity="0.75" stroke="#EEFD68" stroke-width="1.5"/>
<path d="M266.918 7.93352C269.726 9.54319 271.885 12.0819 273.023 15.1122L266.512 17.5569C265.943 16.0417 264.864 14.7724 263.46 13.9675L266.918 7.93352Z" fill="#FB5735" stroke="#EEFD68" stroke-width="1.5"/>
<path d="M246.091 19.9549C246.101 16.718 247.24 13.5862 249.312 11.0988L254.656 15.5494C253.62 16.7931 253.051 18.359 253.046 19.9775L246.091 19.9549Z" fill="white" fill-opacity="0.75" stroke="#EEFD68" stroke-width="1.5"/>
<path d="M249.331 11.0751C251.408 8.59231 254.285 6.9115 257.468 6.32224L258.734 13.161C257.143 13.4556 255.704 14.296 254.665 15.5374L249.331 11.0751Z" fill="white" fill-opacity="0.75" stroke="#EEFD68" stroke-width="1.5"/>
<path d="M257.543 6.308C260.729 5.73587 264.015 6.29274 266.834 7.88268L263.418 13.9408C262.008 13.1458 260.365 12.8674 258.772 13.1535L257.543 6.308Z" fill="#FB5735" stroke="#EEFD68" stroke-width="1.5"/>
</svg>
