<svg width="271" height="40" viewBox="0 0 271 40" fill="none" xmlns="http://www.w3.org/2000/svg">
<path d="M0 20C0 8.95431 8.9543 0 20 0H271V40H20C8.95431 40 0 31.0457 0 20Z" fill="#EEFD68"/>
<path d="M16.8073 26V16.56H13.0953V14.8H22.5993V16.56H18.8873V26H16.8073ZM27.1093 26.112C26.1599 26.112 25.3279 25.9253 24.6133 25.552C23.9093 25.168 23.3599 24.6453 22.9653 23.984C22.5813 23.3227 22.3893 22.5707 22.3893 21.728C22.3893 20.8747 22.5759 20.1227 22.9493 19.472C23.3333 18.8107 23.8559 18.2933 24.5173 17.92C25.1893 17.5467 25.9519 17.36 26.8053 17.36C27.6373 17.36 28.3786 17.5413 29.0293 17.904C29.6799 18.2667 30.1919 18.7787 30.5653 19.44C30.9386 20.1013 31.1253 20.88 31.1253 21.776C31.1253 21.8613 31.1199 21.9573 31.1093 22.064C31.1093 22.1707 31.1039 22.272 31.0933 22.368H23.9733V21.04H30.0373L29.2533 21.456C29.2639 20.9653 29.1626 20.5333 28.9493 20.16C28.7359 19.7867 28.4426 19.4933 28.0693 19.28C27.7066 19.0667 27.2853 18.96 26.8053 18.96C26.3146 18.96 25.8826 19.0667 25.5093 19.28C25.1466 19.4933 24.8586 19.792 24.6453 20.176C24.4426 20.5493 24.3413 20.992 24.3413 21.504V21.824C24.3413 22.336 24.4586 22.7893 24.6933 23.184C24.9279 23.5787 25.2586 23.8827 25.6853 24.096C26.1119 24.3093 26.6026 24.416 27.1573 24.416C27.6373 24.416 28.0693 24.3413 28.4533 24.192C28.8373 24.0427 29.1786 23.808 29.4773 23.488L30.5493 24.72C30.1653 25.168 29.6799 25.5147 29.0933 25.76C28.5173 25.9947 27.8559 26.112 27.1093 26.112ZM33.0464 26V17.456H34.9504V19.808L34.7264 19.12C34.9824 18.544 35.3824 18.1067 35.9264 17.808C36.481 17.5093 37.169 17.36 37.9904 17.36V19.264C37.905 19.2427 37.825 19.232 37.7504 19.232C37.6757 19.2213 37.601 19.216 37.5264 19.216C36.769 19.216 36.1664 19.44 35.7184 19.888C35.2704 20.3253 35.0464 20.9813 35.0464 21.856V26H33.0464ZM43.5289 26.112C42.6329 26.112 41.8329 25.9253 41.1289 25.552C40.4355 25.168 39.8915 24.6453 39.4969 23.984C39.1022 23.3227 38.9049 22.5707 38.9049 21.728C38.9049 20.8747 39.1022 20.1227 39.4969 19.472C39.8915 18.8107 40.4355 18.2933 41.1289 17.92C41.8329 17.5467 42.6329 17.36 43.5289 17.36C44.3609 17.36 45.0915 17.5307 45.7209 17.872C46.3609 18.2027 46.8462 18.6933 47.1769 19.344L45.6409 20.24C45.3849 19.8347 45.0702 19.536 44.6969 19.344C44.3342 19.152 43.9395 19.056 43.5129 19.056C43.0222 19.056 42.5795 19.1627 42.1849 19.376C41.7902 19.5893 41.4809 19.8987 41.2569 20.304C41.0329 20.6987 40.9209 21.1733 40.9209 21.728C40.9209 22.2827 41.0329 22.7627 41.2569 23.168C41.4809 23.5627 41.7902 23.8667 42.1849 24.08C42.5795 24.2933 43.0222 24.4 43.5129 24.4C43.9395 24.4 44.3342 24.304 44.6969 24.112C45.0702 23.92 45.3849 23.6213 45.6409 23.216L47.1769 24.112C46.8462 24.752 46.3609 25.248 45.7209 25.6C45.0915 25.9413 44.3609 26.112 43.5289 26.112ZM52.7968 26.112C51.8474 26.112 51.0154 25.9253 50.3008 25.552C49.5968 25.168 49.0474 24.6453 48.6528 23.984C48.2688 23.3227 48.0768 22.5707 48.0768 21.728C48.0768 20.8747 48.2634 20.1227 48.6368 19.472C49.0208 18.8107 49.5434 18.2933 50.2048 17.92C50.8768 17.5467 51.6394 17.36 52.4928 17.36C53.3248 17.36 54.0661 17.5413 54.7168 17.904C55.3674 18.2667 55.8794 18.7787 56.2528 19.44C56.6261 20.1013 56.8128 20.88 56.8128 21.776C56.8128 21.8613 56.8074 21.9573 56.7968 22.064C56.7968 22.1707 56.7914 22.272 56.7808 22.368H49.6608V21.04H55.7248L54.9408 21.456C54.9514 20.9653 54.8501 20.5333 54.6368 20.16C54.4234 19.7867 54.1301 19.4933 53.7568 19.28C53.3941 19.0667 52.9728 18.96 52.4928 18.96C52.0021 18.96 51.5701 19.0667 51.1968 19.28C50.8341 19.4933 50.5461 19.792 50.3328 20.176C50.1301 20.5493 50.0288 20.992 50.0288 21.504V21.824C50.0288 22.336 50.1461 22.7893 50.3808 23.184C50.6154 23.5787 50.9461 23.8827 51.3728 24.096C51.7994 24.3093 52.2901 24.416 52.8448 24.416C53.3248 24.416 53.7568 24.3413 54.1408 24.192C54.5248 24.0427 54.8661 23.808 55.1648 23.488L56.2368 24.72C55.8528 25.168 55.3674 25.5147 54.7808 25.76C54.2048 25.9947 53.5434 26.112 52.7968 26.112ZM58.7339 26V17.456H60.6379V19.808L60.4139 19.12C60.6699 18.544 61.0699 18.1067 61.6139 17.808C62.1685 17.5093 62.8565 17.36 63.6779 17.36V19.264C63.5925 19.2427 63.5125 19.232 63.4379 19.232C63.3632 19.2213 63.2885 19.216 63.2139 19.216C62.4565 19.216 61.8539 19.44 61.4059 19.888C60.9579 20.3253 60.7339 20.9813 60.7339 21.856V26H58.7339ZM70.0665 26V14.8H74.9625C76.1785 14.8 77.2452 15.0347 78.1625 15.504C79.0798 15.9733 79.7945 16.624 80.3065 17.456C80.8185 18.288 81.0745 19.2693 81.0745 20.4C81.0745 21.52 80.8185 22.5013 80.3065 23.344C79.7945 24.176 79.0798 24.8267 78.1625 25.296C77.2452 25.7653 76.1785 26 74.9625 26H70.0665ZM72.1465 24.24H74.8665C75.7092 24.24 76.4345 24.08 77.0425 23.76C77.6612 23.44 78.1358 22.992 78.4665 22.416C78.8078 21.84 78.9785 21.168 78.9785 20.4C78.9785 19.6213 78.8078 18.9493 78.4665 18.384C78.1358 17.808 77.6612 17.36 77.0425 17.04C76.4345 16.72 75.7092 16.56 74.8665 16.56H72.1465V24.24ZM87.1093 26.112C86.1599 26.112 85.3279 25.9253 84.6133 25.552C83.9093 25.168 83.3599 24.6453 82.9653 23.984C82.5813 23.3227 82.3893 22.5707 82.3893 21.728C82.3893 20.8747 82.5759 20.1227 82.9493 19.472C83.3333 18.8107 83.8559 18.2933 84.5173 17.92C85.1893 17.5467 85.9519 17.36 86.8053 17.36C87.6373 17.36 88.3786 17.5413 89.0293 17.904C89.6799 18.2667 90.1919 18.7787 90.5653 19.44C90.9386 20.1013 91.1253 20.88 91.1253 21.776C91.1253 21.8613 91.1199 21.9573 91.1093 22.064C91.1093 22.1707 91.1039 22.272 91.0933 22.368H83.9733V21.04H90.0373L89.2533 21.456C89.2639 20.9653 89.1626 20.5333 88.9493 20.16C88.7359 19.7867 88.4426 19.4933 88.0693 19.28C87.7066 19.0667 87.2853 18.96 86.8053 18.96C86.3146 18.96 85.8826 19.0667 85.5093 19.28C85.1466 19.4933 84.8586 19.792 84.6453 20.176C84.4426 20.5493 84.3413 20.992 84.3413 21.504V21.824C84.3413 22.336 84.4586 22.7893 84.6933 23.184C84.9279 23.5787 85.2586 23.8827 85.6853 24.096C86.1119 24.3093 86.6026 24.416 87.1573 24.416C87.6373 24.416 88.0693 24.3413 88.4533 24.192C88.8373 24.0427 89.1786 23.808 89.4773 23.488L90.5493 24.72C90.1653 25.168 89.6799 25.5147 89.0933 25.76C88.5173 25.9947 87.8559 26.112 87.1093 26.112ZM97.7824 26.112C97.057 26.112 96.4117 25.952 95.8464 25.632C95.281 25.312 94.833 24.832 94.5024 24.192C94.1824 23.5413 94.0224 22.72 94.0224 21.728C94.0224 20.7253 94.1877 19.904 94.5184 19.264C94.8597 18.624 95.313 18.1493 95.8784 17.84C96.4544 17.52 97.089 17.36 97.7824 17.36C98.625 17.36 99.3664 17.5413 100.006 17.904C100.657 18.2667 101.169 18.7733 101.542 19.424C101.926 20.0747 102.118 20.8427 102.118 21.728C102.118 22.6133 101.926 23.3813 101.542 24.032C101.169 24.6827 100.657 25.1947 100.006 25.568C99.3664 25.9307 98.625 26.112 97.7824 26.112ZM93.0464 26V14.128H95.0464V19.44L94.8864 21.712L94.9504 23.984V26H93.0464ZM97.5584 24.4C98.0384 24.4 98.465 24.2933 98.8384 24.08C99.2224 23.8667 99.5264 23.5573 99.7504 23.152C99.9744 22.7467 100.086 22.272 100.086 21.728C100.086 21.1733 99.9744 20.6987 99.7504 20.304C99.5264 19.8987 99.2224 19.5893 98.8384 19.376C98.465 19.1627 98.0384 19.056 97.5584 19.056C97.0784 19.056 96.6464 19.1627 96.2624 19.376C95.8784 19.5893 95.5744 19.8987 95.3504 20.304C95.1264 20.6987 95.0144 21.1733 95.0144 21.728C95.0144 22.272 95.1264 22.7467 95.3504 23.152C95.5744 23.5573 95.8784 23.8667 96.2624 24.08C96.6464 24.2933 97.0784 24.4 97.5584 24.4ZM109.17 26V24.272L109.058 23.904V20.88C109.058 20.2933 108.882 19.84 108.53 19.52C108.178 19.1893 107.644 19.024 106.93 19.024C106.45 19.024 105.975 19.0987 105.506 19.248C105.047 19.3973 104.658 19.6053 104.338 19.872L103.554 18.416C104.012 18.064 104.556 17.8027 105.186 17.632C105.826 17.4507 106.487 17.36 107.17 17.36C108.407 17.36 109.362 17.6587 110.034 18.256C110.716 18.8427 111.058 19.7547 111.058 20.992V26H109.17ZM106.482 26.112C105.842 26.112 105.282 26.0053 104.802 25.792C104.322 25.568 103.948 25.264 103.682 24.88C103.426 24.4853 103.298 24.0427 103.298 23.552C103.298 23.072 103.41 22.64 103.634 22.256C103.868 21.872 104.247 21.568 104.77 21.344C105.292 21.12 105.986 21.008 106.85 21.008H109.33V22.336H106.994C106.311 22.336 105.852 22.448 105.618 22.672C105.383 22.8853 105.266 23.152 105.266 23.472C105.266 23.8347 105.41 24.1227 105.698 24.336C105.986 24.5493 106.386 24.656 106.898 24.656C107.388 24.656 107.826 24.544 108.21 24.32C108.604 24.096 108.887 23.7653 109.058 23.328L109.394 24.528C109.202 25.0293 108.855 25.4187 108.354 25.696C107.863 25.9733 107.239 26.112 106.482 26.112ZM116.841 26.112C115.902 26.112 115.177 25.872 114.664 25.392C114.153 24.9013 113.897 24.1813 113.897 23.232V15.568H115.897V23.184C115.897 23.5893 115.998 23.904 116.201 24.128C116.414 24.352 116.707 24.464 117.081 24.464C117.529 24.464 117.902 24.3467 118.201 24.112L118.761 25.536C118.526 25.728 118.238 25.872 117.897 25.968C117.555 26.064 117.203 26.112 116.841 26.112ZM112.489 19.12V17.52H118.185V19.12H112.489ZM124.141 26.112C123.191 26.112 122.359 25.9253 121.645 25.552C120.941 25.168 120.391 24.6453 119.997 23.984C119.613 23.3227 119.421 22.5707 119.421 21.728C119.421 20.8747 119.607 20.1227 119.981 19.472C120.365 18.8107 120.887 18.2933 121.549 17.92C122.221 17.5467 122.983 17.36 123.837 17.36C124.669 17.36 125.41 17.5413 126.061 17.904C126.711 18.2667 127.223 18.7787 127.597 19.44C127.97 20.1013 128.157 20.88 128.157 21.776C128.157 21.8613 128.151 21.9573 128.141 22.064C128.141 22.1707 128.135 22.272 128.125 22.368H121.005V21.04H127.069L126.285 21.456C126.295 20.9653 126.194 20.5333 125.981 20.16C125.767 19.7867 125.474 19.4933 125.101 19.28C124.738 19.0667 124.317 18.96 123.837 18.96C123.346 18.96 122.914 19.0667 122.541 19.28C122.178 19.4933 121.89 19.792 121.677 20.176C121.474 20.5493 121.373 20.992 121.373 21.504V21.824C121.373 22.336 121.49 22.7893 121.725 23.184C121.959 23.5787 122.29 23.8827 122.717 24.096C123.143 24.3093 123.634 24.416 124.189 24.416C124.669 24.416 125.101 24.3413 125.485 24.192C125.869 24.0427 126.21 23.808 126.509 23.488L127.581 24.72C127.197 25.168 126.711 25.5147 126.125 25.76C125.549 25.9947 124.887 26.112 124.141 26.112ZM134.068 22.384V20.72H138.468V22.384H134.068ZM150.454 26.16C149.6 26.16 148.806 26.0213 148.07 25.744C147.344 25.456 146.71 25.056 146.166 24.544C145.632 24.0213 145.216 23.408 144.918 22.704C144.619 22 144.47 21.232 144.47 20.4C144.47 19.568 144.619 18.8 144.918 18.096C145.216 17.392 145.638 16.784 146.182 16.272C146.726 15.7493 147.36 15.3493 148.086 15.072C148.811 14.784 149.606 14.64 150.47 14.64C151.387 14.64 152.224 14.8 152.982 15.12C153.739 15.4293 154.379 15.8933 154.902 16.512L153.558 17.776C153.152 17.3387 152.699 17.0133 152.198 16.8C151.696 16.576 151.152 16.464 150.566 16.464C149.979 16.464 149.44 16.56 148.95 16.752C148.47 16.944 148.048 17.216 147.686 17.568C147.334 17.92 147.056 18.336 146.854 18.816C146.662 19.296 146.566 19.824 146.566 20.4C146.566 20.976 146.662 21.504 146.854 21.984C147.056 22.464 147.334 22.88 147.686 23.232C148.048 23.584 148.47 23.856 148.95 24.048C149.44 24.24 149.979 24.336 150.566 24.336C151.152 24.336 151.696 24.2293 152.198 24.016C152.699 23.792 153.152 23.456 153.558 23.008L154.902 24.288C154.379 24.896 153.739 25.36 152.982 25.68C152.224 26 151.382 26.16 150.454 26.16ZM160.215 26.112C159.34 26.112 158.561 25.9253 157.879 25.552C157.196 25.168 156.657 24.6453 156.263 23.984C155.868 23.3227 155.671 22.5707 155.671 21.728C155.671 20.8747 155.868 20.1227 156.263 19.472C156.657 18.8107 157.196 18.2933 157.879 17.92C158.561 17.5467 159.34 17.36 160.215 17.36C161.1 17.36 161.884 17.5467 162.567 17.92C163.26 18.2933 163.799 18.8053 164.183 19.456C164.577 20.1067 164.775 20.864 164.775 21.728C164.775 22.5707 164.577 23.3227 164.183 23.984C163.799 24.6453 163.26 25.168 162.567 25.552C161.884 25.9253 161.1 26.112 160.215 26.112ZM160.215 24.4C160.705 24.4 161.143 24.2933 161.527 24.08C161.911 23.8667 162.209 23.5573 162.423 23.152C162.647 22.7467 162.759 22.272 162.759 21.728C162.759 21.1733 162.647 20.6987 162.423 20.304C162.209 19.8987 161.911 19.5893 161.527 19.376C161.143 19.1627 160.711 19.056 160.231 19.056C159.74 19.056 159.303 19.1627 158.919 19.376C158.545 19.5893 158.247 19.8987 158.023 20.304C157.799 20.6987 157.687 21.1733 157.687 21.728C157.687 22.272 157.799 22.7467 158.023 23.152C158.247 23.5573 158.545 23.8667 158.919 24.08C159.303 24.2933 159.735 24.4 160.215 24.4ZM177.471 17.36C178.154 17.36 178.756 17.4933 179.279 17.76C179.812 18.0267 180.228 18.4373 180.527 18.992C180.826 19.536 180.975 20.24 180.975 21.104V26H178.975V21.36C178.975 20.6027 178.81 20.0373 178.479 19.664C178.148 19.2907 177.674 19.104 177.055 19.104C176.618 19.104 176.228 19.2 175.887 19.392C175.556 19.584 175.295 19.8667 175.103 20.24C174.922 20.6133 174.831 21.088 174.831 21.664V26H172.831V21.36C172.831 20.6027 172.666 20.0373 172.335 19.664C172.004 19.2907 171.53 19.104 170.911 19.104C170.474 19.104 170.084 19.2 169.743 19.392C169.412 19.584 169.151 19.8667 168.959 20.24C168.778 20.6133 168.687 21.088 168.687 21.664V26H166.687V17.456H168.591V19.728L168.255 19.056C168.543 18.5013 168.959 18.08 169.503 17.792C170.058 17.504 170.687 17.36 171.391 17.36C172.191 17.36 172.884 17.5573 173.471 17.952C174.068 18.3467 174.463 18.944 174.655 19.744L173.871 19.472C174.148 18.832 174.607 18.32 175.247 17.936C175.887 17.552 176.628 17.36 177.471 17.36ZM183.531 26V17.456H185.531V26H183.531ZM184.539 16.048C184.165 16.048 183.856 15.9307 183.611 15.696C183.376 15.4613 183.259 15.1787 183.259 14.848C183.259 14.5067 183.376 14.224 183.611 14C183.856 13.7653 184.165 13.648 184.539 13.648C184.912 13.648 185.216 13.76 185.451 13.984C185.696 14.1973 185.819 14.4693 185.819 14.8C185.819 15.152 185.701 15.4507 185.467 15.696C185.232 15.9307 184.923 16.048 184.539 16.048ZM190.796 26.112C190.081 26.112 189.393 26.0213 188.732 25.84C188.081 25.648 187.564 25.4187 187.18 25.152L187.948 23.632C188.332 23.8773 188.79 24.08 189.324 24.24C189.857 24.4 190.39 24.48 190.924 24.48C191.553 24.48 192.006 24.3947 192.284 24.224C192.572 24.0533 192.716 23.824 192.716 23.536C192.716 23.3013 192.62 23.1253 192.428 23.008C192.236 22.88 191.985 22.784 191.676 22.72C191.366 22.656 191.02 22.5973 190.636 22.544C190.262 22.4907 189.884 22.4213 189.5 22.336C189.126 22.24 188.785 22.1067 188.476 21.936C188.166 21.7547 187.916 21.5147 187.724 21.216C187.532 20.9173 187.436 20.5227 187.436 20.032C187.436 19.488 187.59 19.0187 187.9 18.624C188.209 18.2187 188.641 17.9093 189.196 17.696C189.761 17.472 190.428 17.36 191.196 17.36C191.772 17.36 192.353 17.424 192.94 17.552C193.526 17.68 194.012 17.8613 194.396 18.096L193.628 19.616C193.222 19.3707 192.812 19.2053 192.396 19.12C191.99 19.024 191.585 18.976 191.18 18.976C190.572 18.976 190.118 19.0667 189.82 19.248C189.532 19.4293 189.388 19.6587 189.388 19.936C189.388 20.192 189.484 20.384 189.676 20.512C189.868 20.64 190.118 20.7413 190.428 20.816C190.737 20.8907 191.078 20.9547 191.452 21.008C191.836 21.0507 192.214 21.12 192.588 21.216C192.961 21.312 193.302 21.4453 193.612 21.616C193.932 21.776 194.188 22.0053 194.38 22.304C194.572 22.6027 194.668 22.992 194.668 23.472C194.668 24.0053 194.508 24.4693 194.188 24.864C193.878 25.2587 193.436 25.568 192.86 25.792C192.284 26.0053 191.596 26.112 190.796 26.112ZM196.39 26V17.456H198.39V26H196.39ZM197.398 16.048C197.025 16.048 196.715 15.9307 196.47 15.696C196.235 15.4613 196.118 15.1787 196.118 14.848C196.118 14.5067 196.235 14.224 196.47 14C196.715 13.7653 197.025 13.648 197.398 13.648C197.771 13.648 198.075 13.76 198.31 13.984C198.555 14.1973 198.678 14.4693 198.678 14.8C198.678 15.152 198.561 15.4507 198.326 15.696C198.091 15.9307 197.782 16.048 197.398 16.048ZM204.855 26.112C203.98 26.112 203.202 25.9253 202.519 25.552C201.836 25.168 201.298 24.6453 200.903 23.984C200.508 23.3227 200.311 22.5707 200.311 21.728C200.311 20.8747 200.508 20.1227 200.903 19.472C201.298 18.8107 201.836 18.2933 202.519 17.92C203.202 17.5467 203.98 17.36 204.855 17.36C205.74 17.36 206.524 17.5467 207.207 17.92C207.9 18.2933 208.439 18.8053 208.823 19.456C209.218 20.1067 209.415 20.864 209.415 21.728C209.415 22.5707 209.218 23.3227 208.823 23.984C208.439 24.6453 207.9 25.168 207.207 25.552C206.524 25.9253 205.74 26.112 204.855 26.112ZM204.855 24.4C205.346 24.4 205.783 24.2933 206.167 24.08C206.551 23.8667 206.85 23.5573 207.063 23.152C207.287 22.7467 207.399 22.272 207.399 21.728C207.399 21.1733 207.287 20.6987 207.063 20.304C206.85 19.8987 206.551 19.5893 206.167 19.376C205.783 19.1627 205.351 19.056 204.871 19.056C204.38 19.056 203.943 19.1627 203.559 19.376C203.186 19.5893 202.887 19.8987 202.663 20.304C202.439 20.6987 202.327 21.1733 202.327 21.728C202.327 22.272 202.439 22.7467 202.663 23.152C202.887 23.5573 203.186 23.8667 203.559 24.08C203.943 24.2933 204.375 24.4 204.855 24.4ZM203.495 16.288L205.655 14.096H208.007L205.223 16.288H203.495ZM216.176 17.36C216.858 17.36 217.466 17.4933 218 17.76C218.544 18.0267 218.97 18.4373 219.28 18.992C219.589 19.536 219.744 20.24 219.744 21.104V26H217.744V21.36C217.744 20.6027 217.562 20.0373 217.2 19.664C216.848 19.2907 216.352 19.104 215.712 19.104C215.242 19.104 214.826 19.2 214.464 19.392C214.101 19.584 213.818 19.872 213.616 20.256C213.424 20.6293 213.328 21.104 213.328 21.68V26H211.328V17.456H213.232V19.76L212.896 19.056C213.194 18.512 213.626 18.096 214.192 17.808C214.768 17.5093 215.429 17.36 216.176 17.36Z" fill="#010704"/>
<path d="M259.164 15.5047C260.21 18.5679 260.155 21.9001 259.008 24.927L252.504 22.4631C253.077 20.9497 253.105 19.2836 252.582 17.752L259.164 15.5047Z" fill="#FB5735" stroke="#EEFD68" stroke-width="1.5"/>
<path d="M258.981 24.9979C257.818 28.0186 255.638 30.5392 252.817 32.1254L249.408 26.0628C250.819 25.2697 251.909 24.0094 252.491 22.499L258.981 24.9979Z" fill="#FB5735" stroke="#EEFD68" stroke-width="1.5"/>
<path d="M252.791 32.1405C249.966 33.7205 246.678 34.2659 243.494 33.6826L244.747 26.8415C246.339 27.1331 247.983 26.8605 249.396 26.0704L252.791 32.1405Z" fill="#FB5735" stroke="#EEFD68" stroke-width="1.5"/>
<path d="M243.419 33.6691C240.239 33.0687 237.367 31.3778 235.299 28.8877L240.649 24.4441C241.683 25.6892 243.119 26.5346 244.709 26.8348L243.419 33.6691Z" fill="white" fill-opacity="0.75" stroke="#EEFD68" stroke-width="1.5"/>
<path d="M235.302 28.8903C233.233 26.4006 232.098 23.2675 232.091 20.0306L239.046 20.0158C239.049 21.6343 239.617 23.2008 240.651 24.4457L235.302 28.8903Z" fill="white" fill-opacity="0.75" stroke="#EEFD68" stroke-width="1.5"/>
<path d="M252.918 7.93352C255.726 9.54319 257.885 12.0819 259.023 15.1122L252.512 17.5569C251.943 16.0417 250.864 14.7724 249.46 13.9675L252.918 7.93352Z" fill="#FB5735" stroke="#EEFD68" stroke-width="1.5"/>
<path d="M232.091 19.9549C232.101 16.718 233.24 13.5862 235.312 11.0988L240.656 15.5494C239.62 16.7931 239.051 18.359 239.046 19.9775L232.091 19.9549Z" fill="white" fill-opacity="0.75" stroke="#EEFD68" stroke-width="1.5"/>
<path d="M235.331 11.0751C237.408 8.59231 240.285 6.9115 243.468 6.32224L244.734 13.161C243.143 13.4556 241.704 14.296 240.665 15.5374L235.331 11.0751Z" fill="white" fill-opacity="0.75" stroke="#EEFD68" stroke-width="1.5"/>
<path d="M243.543 6.308C246.729 5.73587 250.015 6.29274 252.834 7.88268L249.418 13.9408C248.008 13.1458 246.365 12.8674 244.772 13.1535L243.543 6.308Z" fill="#FB5735" stroke="#EEFD68" stroke-width="1.5"/>
</svg>
