<svg width="267" height="40" viewBox="0 0 267 40" fill="none" xmlns="http://www.w3.org/2000/svg">
<path d="M0 20C0 8.95431 8.9543 0 20 0H267V40H20C8.9543 40 0 31.0457 0 20Z" fill="#EEFD68"/>
<path d="M20.0708 26.16C19.2175 26.16 18.4228 26.0213 17.6868 25.744C16.9615 25.456 16.3268 25.056 15.7828 24.544C15.2495 24.0213 14.8335 23.408 14.5348 22.704C14.2361 22 14.0868 21.232 14.0868 20.4C14.0868 19.568 14.2361 18.8 14.5348 18.096C14.8335 17.392 15.2548 16.784 15.7988 16.272C16.3428 15.7493 16.9775 15.3493 17.7028 15.072C18.4281 14.784 19.2228 14.64 20.0868 14.64C21.0041 14.64 21.8415 14.8 22.5988 15.12C23.3561 15.4293 23.9961 15.8933 24.5188 16.512L23.1748 17.776C22.7695 17.3387 22.3161 17.0133 21.8148 16.8C21.3135 16.576 20.7695 16.464 20.1828 16.464C19.5961 16.464 19.0575 16.56 18.5668 16.752C18.0868 16.944 17.6655 17.216 17.3028 17.568C16.9508 17.92 16.6735 18.336 16.4708 18.816C16.2788 19.296 16.1828 19.824 16.1828 20.4C16.1828 20.976 16.2788 21.504 16.4708 21.984C16.6735 22.464 16.9508 22.88 17.3028 23.232C17.6655 23.584 18.0868 23.856 18.5668 24.048C19.0575 24.24 19.5961 24.336 20.1828 24.336C20.7695 24.336 21.3135 24.2293 21.8148 24.016C22.3161 23.792 22.7695 23.456 23.1748 23.008L24.5188 24.288C23.9961 24.896 23.3561 25.36 22.5988 25.68C21.8415 26 20.9988 26.16 20.0708 26.16ZM29.7014 26.112C28.9761 26.112 28.3361 25.9787 27.7814 25.712C27.2268 25.4347 26.7948 25.0187 26.4854 24.464C26.1761 23.8987 26.0214 23.1893 26.0214 22.336V17.456H28.0214V22.064C28.0214 22.832 28.1921 23.408 28.5334 23.792C28.8854 24.1653 29.3814 24.352 30.0214 24.352C30.4908 24.352 30.8961 24.256 31.2374 24.064C31.5894 23.872 31.8614 23.584 32.0534 23.2C32.2561 22.816 32.3574 22.3413 32.3574 21.776V17.456H34.3574V26H32.4534V23.696L32.7894 24.4C32.5014 24.9547 32.0801 25.3813 31.5254 25.68C30.9708 25.968 30.3628 26.112 29.7014 26.112ZM42.2401 26V24.272L42.1281 23.904V20.88C42.1281 20.2933 41.9521 19.84 41.6001 19.52C41.2481 19.1893 40.7147 19.024 40.0001 19.024C39.5201 19.024 39.0454 19.0987 38.5761 19.248C38.1174 19.3973 37.7281 19.6053 37.4081 19.872L36.6241 18.416C37.0827 18.064 37.6267 17.8027 38.2561 17.632C38.8961 17.4507 39.5574 17.36 40.2401 17.36C41.4774 17.36 42.4321 17.6587 43.1041 18.256C43.7867 18.8427 44.1281 19.7547 44.1281 20.992V26H42.2401ZM39.5521 26.112C38.9121 26.112 38.3521 26.0053 37.8721 25.792C37.3921 25.568 37.0187 25.264 36.7521 24.88C36.4961 24.4853 36.3681 24.0427 36.3681 23.552C36.3681 23.072 36.4801 22.64 36.7041 22.256C36.9387 21.872 37.3174 21.568 37.8401 21.344C38.3627 21.12 39.0561 21.008 39.9201 21.008H42.4001V22.336H40.0641C39.3814 22.336 38.9227 22.448 38.6881 22.672C38.4534 22.8853 38.3361 23.152 38.3361 23.472C38.3361 23.8347 38.4801 24.1227 38.7681 24.336C39.0561 24.5493 39.4561 24.656 39.9681 24.656C40.4587 24.656 40.8961 24.544 41.2801 24.32C41.6747 24.096 41.9574 23.7653 42.1281 23.328L42.4641 24.528C42.2721 25.0293 41.9254 25.4187 41.4241 25.696C40.9334 25.9733 40.3094 26.112 39.5521 26.112ZM46.6948 26V17.456H48.5988V19.808L48.3748 19.12C48.6308 18.544 49.0308 18.1067 49.5748 17.808C50.1295 17.5093 50.8175 17.36 51.6388 17.36V19.264C51.5535 19.2427 51.4735 19.232 51.3988 19.232C51.3241 19.2213 51.2495 19.216 51.1748 19.216C50.4175 19.216 49.8148 19.44 49.3668 19.888C48.9188 20.3253 48.6948 20.9813 48.6948 21.856V26H46.6948ZM56.8639 26.112C55.9253 26.112 55.1999 25.872 54.6879 25.392C54.1759 24.9013 53.9199 24.1813 53.9199 23.232V15.568H55.9199V23.184C55.9199 23.5893 56.0213 23.904 56.2239 24.128C56.4373 24.352 56.7306 24.464 57.1039 24.464C57.5519 24.464 57.9253 24.3467 58.2239 24.112L58.7839 25.536C58.5493 25.728 58.2613 25.872 57.9199 25.968C57.5786 26.064 57.2266 26.112 56.8639 26.112ZM52.5119 19.12V17.52H58.2079V19.12H52.5119ZM63.9879 26.112C63.1133 26.112 62.3346 25.9253 61.6519 25.552C60.9693 25.168 60.4306 24.6453 60.0359 23.984C59.6413 23.3227 59.4439 22.5707 59.4439 21.728C59.4439 20.8747 59.6413 20.1227 60.0359 19.472C60.4306 18.8107 60.9693 18.2933 61.6519 17.92C62.3346 17.5467 63.1133 17.36 63.9879 17.36C64.8733 17.36 65.6573 17.5467 66.3399 17.92C67.0333 18.2933 67.5719 18.8053 67.9559 19.456C68.3506 20.1067 68.5479 20.864 68.5479 21.728C68.5479 22.5707 68.3506 23.3227 67.9559 23.984C67.5719 24.6453 67.0333 25.168 66.3399 25.552C65.6573 25.9253 64.8733 26.112 63.9879 26.112ZM63.9879 24.4C64.4786 24.4 64.9159 24.2933 65.2999 24.08C65.6839 23.8667 65.9826 23.5573 66.1959 23.152C66.4199 22.7467 66.5319 22.272 66.5319 21.728C66.5319 21.1733 66.4199 20.6987 66.1959 20.304C65.9826 19.8987 65.6839 19.5893 65.2999 19.376C64.9159 19.1627 64.4839 19.056 64.0039 19.056C63.5133 19.056 63.0759 19.1627 62.6919 19.376C62.3186 19.5893 62.0199 19.8987 61.7959 20.304C61.5719 20.6987 61.4599 21.1733 61.4599 21.728C61.4599 22.272 61.5719 22.7467 61.7959 23.152C62.0199 23.5573 62.3186 23.8667 62.6919 24.08C63.0759 24.2933 63.5079 24.4 63.9879 24.4ZM75.0743 26V14.8H79.9703C81.1863 14.8 82.253 15.0347 83.1703 15.504C84.0876 15.9733 84.8023 16.624 85.3143 17.456C85.8263 18.288 86.0823 19.2693 86.0823 20.4C86.0823 21.52 85.8263 22.5013 85.3143 23.344C84.8023 24.176 84.0876 24.8267 83.1703 25.296C82.253 25.7653 81.1863 26 79.9703 26H75.0743ZM77.1543 24.24H79.8743C80.717 24.24 81.4423 24.08 82.0503 23.76C82.669 23.44 83.1436 22.992 83.4743 22.416C83.8156 21.84 83.9863 21.168 83.9863 20.4C83.9863 19.6213 83.8156 18.9493 83.4743 18.384C83.1436 17.808 82.669 17.36 82.0503 17.04C81.4423 16.72 80.717 16.56 79.8743 16.56H77.1543V24.24ZM92.1171 26.112C91.1677 26.112 90.3357 25.9253 89.6211 25.552C88.9171 25.168 88.3677 24.6453 87.9731 23.984C87.5891 23.3227 87.3971 22.5707 87.3971 21.728C87.3971 20.8747 87.5837 20.1227 87.9571 19.472C88.3411 18.8107 88.8637 18.2933 89.5251 17.92C90.1971 17.5467 90.9597 17.36 91.8131 17.36C92.6451 17.36 93.3864 17.5413 94.0371 17.904C94.6877 18.2667 95.1997 18.7787 95.5731 19.44C95.9464 20.1013 96.1331 20.88 96.1331 21.776C96.1331 21.8613 96.1277 21.9573 96.1171 22.064C96.1171 22.1707 96.1117 22.272 96.1011 22.368H88.9811V21.04H95.0451L94.2611 21.456C94.2717 20.9653 94.1704 20.5333 93.9571 20.16C93.7437 19.7867 93.4504 19.4933 93.0771 19.28C92.7144 19.0667 92.2931 18.96 91.8131 18.96C91.3224 18.96 90.8904 19.0667 90.5171 19.28C90.1544 19.4933 89.8664 19.792 89.6531 20.176C89.4504 20.5493 89.3491 20.992 89.3491 21.504V21.824C89.3491 22.336 89.4664 22.7893 89.7011 23.184C89.9357 23.5787 90.2664 23.8827 90.6931 24.096C91.1197 24.3093 91.6104 24.416 92.1651 24.416C92.6451 24.416 93.0771 24.3413 93.4611 24.192C93.8451 24.0427 94.1864 23.808 94.4851 23.488L95.5571 24.72C95.1731 25.168 94.6877 25.5147 94.1011 25.76C93.5251 25.9947 92.8637 26.112 92.1171 26.112ZM102.79 26.112C102.065 26.112 101.42 25.952 100.854 25.632C100.289 25.312 99.8409 24.832 99.5102 24.192C99.1902 23.5413 99.0302 22.72 99.0302 21.728C99.0302 20.7253 99.1955 19.904 99.5262 19.264C99.8675 18.624 100.321 18.1493 100.886 17.84C101.462 17.52 102.097 17.36 102.79 17.36C103.633 17.36 104.374 17.5413 105.014 17.904C105.665 18.2667 106.177 18.7733 106.55 19.424C106.934 20.0747 107.126 20.8427 107.126 21.728C107.126 22.6133 106.934 23.3813 106.55 24.032C106.177 24.6827 105.665 25.1947 105.014 25.568C104.374 25.9307 103.633 26.112 102.79 26.112ZM98.0542 26V14.128H100.054V19.44L99.8942 21.712L99.9582 23.984V26H98.0542ZM102.566 24.4C103.046 24.4 103.473 24.2933 103.846 24.08C104.23 23.8667 104.534 23.5573 104.758 23.152C104.982 22.7467 105.094 22.272 105.094 21.728C105.094 21.1733 104.982 20.6987 104.758 20.304C104.534 19.8987 104.23 19.5893 103.846 19.376C103.473 19.1627 103.046 19.056 102.566 19.056C102.086 19.056 101.654 19.1627 101.27 19.376C100.886 19.5893 100.582 19.8987 100.358 20.304C100.134 20.6987 100.022 21.1733 100.022 21.728C100.022 22.272 100.134 22.7467 100.358 23.152C100.582 23.5573 100.886 23.8667 101.27 24.08C101.654 24.2933 102.086 24.4 102.566 24.4ZM114.178 26V24.272L114.066 23.904V20.88C114.066 20.2933 113.89 19.84 113.538 19.52C113.186 19.1893 112.652 19.024 111.938 19.024C111.458 19.024 110.983 19.0987 110.514 19.248C110.055 19.3973 109.666 19.6053 109.346 19.872L108.562 18.416C109.02 18.064 109.564 17.8027 110.194 17.632C110.834 17.4507 111.495 17.36 112.178 17.36C113.415 17.36 114.37 17.6587 115.042 18.256C115.724 18.8427 116.066 19.7547 116.066 20.992V26H114.178ZM111.49 26.112C110.85 26.112 110.29 26.0053 109.81 25.792C109.33 25.568 108.956 25.264 108.69 24.88C108.434 24.4853 108.306 24.0427 108.306 23.552C108.306 23.072 108.418 22.64 108.642 22.256C108.876 21.872 109.255 21.568 109.778 21.344C110.3 21.12 110.994 21.008 111.858 21.008H114.338V22.336H112.002C111.319 22.336 110.86 22.448 110.626 22.672C110.391 22.8853 110.274 23.152 110.274 23.472C110.274 23.8347 110.418 24.1227 110.706 24.336C110.994 24.5493 111.394 24.656 111.906 24.656C112.396 24.656 112.834 24.544 113.218 24.32C113.612 24.096 113.895 23.7653 114.066 23.328L114.402 24.528C114.21 25.0293 113.863 25.4187 113.362 25.696C112.871 25.9733 112.247 26.112 111.49 26.112ZM121.848 26.112C120.91 26.112 120.184 25.872 119.672 25.392C119.16 24.9013 118.904 24.1813 118.904 23.232V15.568H120.904V23.184C120.904 23.5893 121.006 23.904 121.208 24.128C121.422 24.352 121.715 24.464 122.088 24.464C122.536 24.464 122.91 24.3467 123.208 24.112L123.768 25.536C123.534 25.728 123.246 25.872 122.904 25.968C122.563 26.064 122.211 26.112 121.848 26.112ZM117.496 19.12V17.52H123.192V19.12H117.496ZM129.148 26.112C128.199 26.112 127.367 25.9253 126.652 25.552C125.948 25.168 125.399 24.6453 125.004 23.984C124.62 23.3227 124.428 22.5707 124.428 21.728C124.428 20.8747 124.615 20.1227 124.988 19.472C125.372 18.8107 125.895 18.2933 126.556 17.92C127.228 17.5467 127.991 17.36 128.844 17.36C129.676 17.36 130.418 17.5413 131.068 17.904C131.719 18.2667 132.231 18.7787 132.604 19.44C132.978 20.1013 133.164 20.88 133.164 21.776C133.164 21.8613 133.159 21.9573 133.148 22.064C133.148 22.1707 133.143 22.272 133.132 22.368H126.012V21.04H132.076L131.292 21.456C131.303 20.9653 131.202 20.5333 130.988 20.16C130.775 19.7867 130.482 19.4933 130.108 19.28C129.746 19.0667 129.324 18.96 128.844 18.96C128.354 18.96 127.922 19.0667 127.548 19.28C127.186 19.4933 126.898 19.792 126.684 20.176C126.482 20.5493 126.38 20.992 126.38 21.504V21.824C126.38 22.336 126.498 22.7893 126.732 23.184C126.967 23.5787 127.298 23.8827 127.724 24.096C128.151 24.3093 128.642 24.416 129.196 24.416C129.676 24.416 130.108 24.3413 130.492 24.192C130.876 24.0427 131.218 23.808 131.516 23.488L132.588 24.72C132.204 25.168 131.719 25.5147 131.132 25.76C130.556 25.9947 129.895 26.112 129.148 26.112ZM139.075 22.384V20.72H143.475V22.384H139.075ZM150.277 26V14.8H154.885C155.877 14.8 156.725 14.96 157.429 15.28C158.144 15.6 158.693 16.0587 159.077 16.656C159.461 17.2533 159.653 17.9627 159.653 18.784C159.653 19.6053 159.461 20.3147 159.077 20.912C158.693 21.5093 158.144 21.968 157.429 22.288C156.725 22.608 155.877 22.768 154.885 22.768H151.429L152.357 21.792V26H150.277ZM152.357 22.016L151.429 21.008H154.789C155.707 21.008 156.395 20.816 156.853 20.432C157.323 20.0373 157.557 19.488 157.557 18.784C157.557 18.0693 157.323 17.52 156.853 17.136C156.395 16.752 155.707 16.56 154.789 16.56H151.429L152.357 15.536V22.016ZM161.695 26V14.128H163.695V26H161.695ZM170.336 26.112C169.386 26.112 168.554 25.9253 167.84 25.552C167.136 25.168 166.586 24.6453 166.192 23.984C165.808 23.3227 165.616 22.5707 165.616 21.728C165.616 20.8747 165.802 20.1227 166.176 19.472C166.56 18.8107 167.082 18.2933 167.744 17.92C168.416 17.5467 169.178 17.36 170.032 17.36C170.864 17.36 171.605 17.5413 172.256 17.904C172.906 18.2667 173.418 18.7787 173.792 19.44C174.165 20.1013 174.352 20.88 174.352 21.776C174.352 21.8613 174.346 21.9573 174.336 22.064C174.336 22.1707 174.33 22.272 174.32 22.368H167.2V21.04H173.264L172.48 21.456C172.49 20.9653 172.389 20.5333 172.176 20.16C171.962 19.7867 171.669 19.4933 171.296 19.28C170.933 19.0667 170.512 18.96 170.032 18.96C169.541 18.96 169.109 19.0667 168.736 19.28C168.373 19.4933 168.085 19.792 167.872 20.176C167.669 20.5493 167.568 20.992 167.568 21.504V21.824C167.568 22.336 167.685 22.7893 167.92 23.184C168.154 23.5787 168.485 23.8827 168.912 24.096C169.338 24.3093 169.829 24.416 170.384 24.416C170.864 24.416 171.296 24.3413 171.68 24.192C172.064 24.0427 172.405 23.808 172.704 23.488L173.776 24.72C173.392 25.168 172.906 25.5147 172.32 25.76C171.744 25.9947 171.082 26.112 170.336 26.112ZM181.121 17.36C181.804 17.36 182.412 17.4933 182.945 17.76C183.489 18.0267 183.916 18.4373 184.225 18.992C184.534 19.536 184.689 20.24 184.689 21.104V26H182.689V21.36C182.689 20.6027 182.508 20.0373 182.145 19.664C181.793 19.2907 181.297 19.104 180.657 19.104C180.188 19.104 179.772 19.2 179.409 19.392C179.046 19.584 178.764 19.872 178.561 20.256C178.369 20.6293 178.273 21.104 178.273 21.68V26H176.273V17.456H178.177V19.76L177.841 19.056C178.14 18.512 178.572 18.096 179.137 17.808C179.713 17.5093 180.374 17.36 181.121 17.36ZM192.49 26V24.272L192.378 23.904V20.88C192.378 20.2933 192.202 19.84 191.85 19.52C191.498 19.1893 190.965 19.024 190.25 19.024C189.77 19.024 189.295 19.0987 188.826 19.248C188.367 19.3973 187.978 19.6053 187.658 19.872L186.874 18.416C187.333 18.064 187.877 17.8027 188.506 17.632C189.146 17.4507 189.807 17.36 190.49 17.36C191.727 17.36 192.682 17.6587 193.354 18.256C194.037 18.8427 194.378 19.7547 194.378 20.992V26H192.49ZM189.802 26.112C189.162 26.112 188.602 26.0053 188.122 25.792C187.642 25.568 187.269 25.264 187.002 24.88C186.746 24.4853 186.618 24.0427 186.618 23.552C186.618 23.072 186.73 22.64 186.954 22.256C187.189 21.872 187.567 21.568 188.09 21.344C188.613 21.12 189.306 21.008 190.17 21.008H192.65V22.336H190.314C189.631 22.336 189.173 22.448 188.938 22.672C188.703 22.8853 188.586 23.152 188.586 23.472C188.586 23.8347 188.73 24.1227 189.018 24.336C189.306 24.5493 189.706 24.656 190.218 24.656C190.709 24.656 191.146 24.544 191.53 24.32C191.925 24.096 192.207 23.7653 192.378 23.328L192.714 24.528C192.522 25.0293 192.175 25.4187 191.674 25.696C191.183 25.9733 190.559 26.112 189.802 26.112ZM196.945 26V17.456H198.849V19.808L198.625 19.12C198.881 18.544 199.281 18.1067 199.825 17.808C200.379 17.5093 201.067 17.36 201.889 17.36V19.264C201.803 19.2427 201.723 19.232 201.649 19.232C201.574 19.2213 201.499 19.216 201.425 19.216C200.667 19.216 200.065 19.44 199.617 19.888C199.169 20.3253 198.945 20.9813 198.945 21.856V26H196.945ZM203.585 26V17.456H205.585V26H203.585ZM204.593 16.048C204.22 16.048 203.911 15.9307 203.665 15.696C203.431 15.4613 203.313 15.1787 203.313 14.848C203.313 14.5067 203.431 14.224 203.665 14C203.911 13.7653 204.22 13.648 204.593 13.648C204.967 13.648 205.271 13.76 205.505 13.984C205.751 14.1973 205.873 14.4693 205.873 14.8C205.873 15.152 205.756 15.4507 205.521 15.696C205.287 15.9307 204.977 16.048 204.593 16.048ZM213.474 26V24.272L213.362 23.904V20.88C213.362 20.2933 213.186 19.84 212.834 19.52C212.482 19.1893 211.949 19.024 211.234 19.024C210.754 19.024 210.28 19.0987 209.81 19.248C209.352 19.3973 208.962 19.6053 208.642 19.872L207.858 18.416C208.317 18.064 208.861 17.8027 209.49 17.632C210.13 17.4507 210.792 17.36 211.474 17.36C212.712 17.36 213.666 17.6587 214.338 18.256C215.021 18.8427 215.362 19.7547 215.362 20.992V26H213.474ZM210.786 26.112C210.146 26.112 209.586 26.0053 209.106 25.792C208.626 25.568 208.253 25.264 207.986 24.88C207.73 24.4853 207.602 24.0427 207.602 23.552C207.602 23.072 207.714 22.64 207.938 22.256C208.173 21.872 208.552 21.568 209.074 21.344C209.597 21.12 210.29 21.008 211.154 21.008H213.634V22.336H211.298C210.616 22.336 210.157 22.448 209.922 22.672C209.688 22.8853 209.57 23.152 209.57 23.472C209.57 23.8347 209.714 24.1227 210.002 24.336C210.29 24.5493 210.69 24.656 211.202 24.656C211.693 24.656 212.13 24.544 212.514 24.32C212.909 24.096 213.192 23.7653 213.362 23.328L213.698 24.528C213.506 25.0293 213.16 25.4187 212.658 25.696C212.168 25.9733 211.544 26.112 210.786 26.112Z" fill="#010704"/>
<path d="M255.164 15.5047C256.21 18.5679 256.155 21.9001 255.008 24.927L248.504 22.4631C249.077 20.9497 249.105 19.2836 248.582 17.752L255.164 15.5047Z" fill="#FB5735" stroke="#EEFD68" stroke-width="1.5"/>
<path d="M254.981 24.9979C253.818 28.0186 251.638 30.5392 248.817 32.1254L245.408 26.0628C246.819 25.2697 247.909 24.0094 248.491 22.499L254.981 24.9979Z" fill="#FB5735" stroke="#EEFD68" stroke-width="1.5"/>
<path d="M248.791 32.1405C245.966 33.7205 242.678 34.2659 239.494 33.6826L240.747 26.8415C242.339 27.1331 243.983 26.8605 245.396 26.0704L248.791 32.1405Z" fill="#FB5735" stroke="#EEFD68" stroke-width="1.5"/>
<path d="M239.419 33.6691C236.239 33.0687 233.367 31.3778 231.299 28.8877L236.649 24.4441C237.683 25.6892 239.119 26.5346 240.709 26.8348L239.419 33.6691Z" fill="#FB5735" stroke="#EEFD68" stroke-width="1.5"/>
<path d="M231.302 28.8903C229.233 26.4006 228.098 23.2675 228.091 20.0306L235.046 20.0158C235.049 21.6343 235.617 23.2008 236.651 24.4457L231.302 28.8903Z" fill="white" fill-opacity="0.75" stroke="#EEFD68" stroke-width="1.5"/>
<path d="M248.918 7.93352C251.726 9.54319 253.885 12.0819 255.023 15.1122L248.512 17.5569C247.943 16.0417 246.864 14.7724 245.46 13.9675L248.918 7.93352Z" fill="#FB5735" stroke="#EEFD68" stroke-width="1.5"/>
<path d="M228.091 19.9549C228.101 16.718 229.24 13.5862 231.312 11.0988L236.656 15.5494C235.62 16.7931 235.051 18.359 235.046 19.9775L228.091 19.9549Z" fill="white" fill-opacity="0.75" stroke="#EEFD68" stroke-width="1.5"/>
<path d="M231.331 11.0751C233.408 8.59231 236.285 6.9115 239.468 6.32224L240.734 13.161C239.143 13.4556 237.704 14.296 236.665 15.5374L231.331 11.0751Z" fill="white" fill-opacity="0.75" stroke="#EEFD68" stroke-width="1.5"/>
<path d="M239.543 6.308C242.729 5.73587 246.015 6.29274 248.834 7.88268L245.418 13.9408C244.008 13.1458 242.365 12.8674 240.772 13.1535L239.543 6.308Z" fill="#FB5735" stroke="#EEFD68" stroke-width="1.5"/>
</svg>
