<svg width="235" height="40" viewBox="0 0 235 40" fill="none" xmlns="http://www.w3.org/2000/svg">
<path d="M0 20C0 8.95431 8.9543 0 20 0H235V40H20C8.9543 40 0 31.0457 0 20Z" fill="#EEFD68"/>
<path d="M18.4135 26.16C17.5388 26.16 16.7015 26.0373 15.9015 25.792C15.1015 25.536 14.4668 25.2107 13.9975 24.816L14.7175 23.2C15.1655 23.552 15.7202 23.8453 16.3815 24.08C17.0428 24.3147 17.7202 24.432 18.4135 24.432C19.0002 24.432 19.4748 24.368 19.8375 24.24C20.2002 24.112 20.4668 23.9413 20.6375 23.728C20.8082 23.504 20.8935 23.2533 20.8935 22.976C20.8935 22.6347 20.7708 22.3627 20.5255 22.16C20.2802 21.9467 19.9602 21.7813 19.5655 21.664C19.1815 21.536 18.7495 21.4187 18.2695 21.312C17.8002 21.2053 17.3255 21.0827 16.8455 20.944C16.3762 20.7947 15.9442 20.608 15.5495 20.384C15.1655 20.1493 14.8508 19.84 14.6055 19.456C14.3602 19.072 14.2375 18.5813 14.2375 17.984C14.2375 17.376 14.3975 16.8213 14.7175 16.32C15.0482 15.808 15.5442 15.4027 16.2055 15.104C16.8775 14.7947 17.7255 14.64 18.7495 14.64C19.4215 14.64 20.0882 14.7253 20.7495 14.896C21.4108 15.0667 21.9868 15.312 22.4775 15.632L21.8215 17.248C21.3202 16.9493 20.8028 16.7307 20.2695 16.592C19.7362 16.4427 19.2242 16.368 18.7335 16.368C18.1575 16.368 17.6882 16.4373 17.3255 16.576C16.9735 16.7147 16.7122 16.896 16.5415 17.12C16.3815 17.344 16.3015 17.6 16.3015 17.888C16.3015 18.2293 16.4188 18.5067 16.6535 18.72C16.8988 18.9227 17.2135 19.0827 17.5975 19.2C17.9922 19.3173 18.4295 19.4347 18.9095 19.552C19.3895 19.6587 19.8642 19.7813 20.3335 19.92C20.8135 20.0587 21.2455 20.24 21.6295 20.464C22.0242 20.688 22.3388 20.992 22.5735 21.376C22.8188 21.76 22.9415 22.2453 22.9415 22.832C22.9415 23.4293 22.7762 23.984 22.4455 24.496C22.1255 24.9973 21.6295 25.4027 20.9575 25.712C20.2855 26.0107 19.4375 26.16 18.4135 26.16ZM30.076 26V24.272L29.964 23.904V20.88C29.964 20.2933 29.788 19.84 29.436 19.52C29.084 19.1893 28.5507 19.024 27.836 19.024C27.356 19.024 26.8813 19.0987 26.412 19.248C25.9533 19.3973 25.564 19.6053 25.244 19.872L24.46 18.416C24.9187 18.064 25.4627 17.8027 26.092 17.632C26.732 17.4507 27.3933 17.36 28.076 17.36C29.3133 17.36 30.268 17.6587 30.94 18.256C31.6227 18.8427 31.964 19.7547 31.964 20.992V26H30.076ZM27.388 26.112C26.748 26.112 26.188 26.0053 25.708 25.792C25.228 25.568 24.8547 25.264 24.588 24.88C24.332 24.4853 24.204 24.0427 24.204 23.552C24.204 23.072 24.316 22.64 24.54 22.256C24.7747 21.872 25.1533 21.568 25.676 21.344C26.1987 21.12 26.892 21.008 27.756 21.008H30.236V22.336H27.9C27.2173 22.336 26.7587 22.448 26.524 22.672C26.2893 22.8853 26.172 23.152 26.172 23.472C26.172 23.8347 26.316 24.1227 26.604 24.336C26.892 24.5493 27.292 24.656 27.804 24.656C28.2947 24.656 28.732 24.544 29.116 24.32C29.5107 24.096 29.7933 23.7653 29.964 23.328L30.3 24.528C30.108 25.0293 29.7613 25.4187 29.26 25.696C28.7693 25.9733 28.1453 26.112 27.388 26.112ZM39.3788 17.36C40.0614 17.36 40.6694 17.4933 41.2028 17.76C41.7468 18.0267 42.1734 18.4373 42.4828 18.992C42.7921 19.536 42.9468 20.24 42.9468 21.104V26H40.9468V21.36C40.9468 20.6027 40.7654 20.0373 40.4028 19.664C40.0508 19.2907 39.5548 19.104 38.9148 19.104C38.4454 19.104 38.0294 19.2 37.6668 19.392C37.3041 19.584 37.0214 19.872 36.8188 20.256C36.6268 20.6293 36.5308 21.104 36.5308 21.68V26H34.5308V17.456H36.4348V19.76L36.0988 19.056C36.3974 18.512 36.8294 18.096 37.3948 17.808C37.9708 17.5093 38.6321 17.36 39.3788 17.36ZM49.4195 26.112C48.5235 26.112 47.7235 25.9253 47.0195 25.552C46.3262 25.168 45.7822 24.6453 45.3875 23.984C44.9928 23.3227 44.7955 22.5707 44.7955 21.728C44.7955 20.8747 44.9928 20.1227 45.3875 19.472C45.7822 18.8107 46.3262 18.2933 47.0195 17.92C47.7235 17.5467 48.5235 17.36 49.4195 17.36C50.2515 17.36 50.9822 17.5307 51.6115 17.872C52.2515 18.2027 52.7368 18.6933 53.0675 19.344L51.5315 20.24C51.2755 19.8347 50.9608 19.536 50.5875 19.344C50.2248 19.152 49.8302 19.056 49.4035 19.056C48.9128 19.056 48.4702 19.1627 48.0755 19.376C47.6808 19.5893 47.3715 19.8987 47.1475 20.304C46.9235 20.6987 46.8115 21.1733 46.8115 21.728C46.8115 22.2827 46.9235 22.7627 47.1475 23.168C47.3715 23.5627 47.6808 23.8667 48.0755 24.08C48.4702 24.2933 48.9128 24.4 49.4035 24.4C49.8302 24.4 50.2248 24.304 50.5875 24.112C50.9608 23.92 51.2755 23.6213 51.5315 23.216L53.0675 24.112C52.7368 24.752 52.2515 25.248 51.6115 25.6C50.9822 25.9413 50.2515 26.112 49.4195 26.112ZM54.7183 26V17.456H56.7183V26H54.7183ZM55.7263 16.048C55.3529 16.048 55.0436 15.9307 54.7983 15.696C54.5636 15.4613 54.4463 15.1787 54.4463 14.848C54.4463 14.5067 54.5636 14.224 54.7983 14C55.0436 13.7653 55.3529 13.648 55.7263 13.648C56.0996 13.648 56.4036 13.76 56.6383 13.984C56.8836 14.1973 57.0063 14.4693 57.0063 14.8C57.0063 15.152 56.8889 15.4507 56.6543 15.696C56.4196 15.9307 56.1103 16.048 55.7263 16.048ZM63.1833 26.112C62.3086 26.112 61.5299 25.9253 60.8473 25.552C60.1646 25.168 59.6259 24.6453 59.2313 23.984C58.8366 23.3227 58.6393 22.5707 58.6393 21.728C58.6393 20.8747 58.8366 20.1227 59.2313 19.472C59.6259 18.8107 60.1646 18.2933 60.8473 17.92C61.5299 17.5467 62.3086 17.36 63.1833 17.36C64.0686 17.36 64.8526 17.5467 65.5353 17.92C66.2286 18.2933 66.7673 18.8053 67.1513 19.456C67.5459 20.1067 67.7433 20.864 67.7433 21.728C67.7433 22.5707 67.5459 23.3227 67.1513 23.984C66.7673 24.6453 66.2286 25.168 65.5353 25.552C64.8526 25.9253 64.0686 26.112 63.1833 26.112ZM63.1833 24.4C63.6739 24.4 64.1113 24.2933 64.4953 24.08C64.8793 23.8667 65.1779 23.5573 65.3913 23.152C65.6153 22.7467 65.7273 22.272 65.7273 21.728C65.7273 21.1733 65.6153 20.6987 65.3913 20.304C65.1779 19.8987 64.8793 19.5893 64.4953 19.376C64.1113 19.1627 63.6793 19.056 63.1993 19.056C62.7086 19.056 62.2713 19.1627 61.8873 19.376C61.5139 19.5893 61.2153 19.8987 60.9913 20.304C60.7673 20.6987 60.6553 21.1733 60.6553 21.728C60.6553 22.272 60.7673 22.7467 60.9913 23.152C61.2153 23.5573 61.5139 23.8667 61.8873 24.08C62.2713 24.2933 62.7033 24.4 63.1833 24.4ZM61.8233 16.288L63.9833 14.096H66.3353L63.5513 16.288H61.8233ZM74.5038 17.36C75.1864 17.36 75.7944 17.4933 76.3278 17.76C76.8718 18.0267 77.2984 18.4373 77.6078 18.992C77.9171 19.536 78.0718 20.24 78.0718 21.104V26H76.0718V21.36C76.0718 20.6027 75.8904 20.0373 75.5278 19.664C75.1758 19.2907 74.6798 19.104 74.0398 19.104C73.5704 19.104 73.1544 19.2 72.7918 19.392C72.4291 19.584 72.1464 19.872 71.9438 20.256C71.7518 20.6293 71.6558 21.104 71.6558 21.68V26H69.6558V17.456H71.5598V19.76L71.2238 19.056C71.5224 18.512 71.9544 18.096 72.5198 17.808C73.0958 17.5093 73.7571 17.36 74.5038 17.36ZM85.2228 26V14.8H89.8308C90.8228 14.8 91.6708 14.96 92.3748 15.28C93.0894 15.6 93.6388 16.0587 94.0228 16.656C94.4068 17.2533 94.5988 17.9627 94.5988 18.784C94.5988 19.6053 94.4068 20.3147 94.0228 20.912C93.6388 21.5093 93.0894 21.968 92.3748 22.288C91.6708 22.608 90.8228 22.768 89.8308 22.768H86.3748L87.3028 21.792V26H85.2228ZM87.3028 22.016L86.3748 21.008H89.7348C90.6521 21.008 91.3401 20.816 91.7987 20.432C92.2681 20.0373 92.5028 19.488 92.5028 18.784C92.5028 18.0693 92.2681 17.52 91.7987 17.136C91.3401 16.752 90.6521 16.56 89.7348 16.56H86.3748L87.3028 15.536V22.016ZM96.4058 26V17.456H98.3098V19.808L98.0858 19.12C98.3418 18.544 98.7418 18.1067 99.2858 17.808C99.8404 17.5093 100.528 17.36 101.35 17.36V19.264C101.264 19.2427 101.184 19.232 101.11 19.232C101.035 19.2213 100.96 19.216 100.886 19.216C100.128 19.216 99.5258 19.44 99.0778 19.888C98.6298 20.3253 98.4058 20.9813 98.4058 21.856V26H96.4058ZM106.984 26.112C106.035 26.112 105.203 25.9253 104.488 25.552C103.784 25.168 103.235 24.6453 102.84 23.984C102.456 23.3227 102.264 22.5707 102.264 21.728C102.264 20.8747 102.451 20.1227 102.824 19.472C103.208 18.8107 103.731 18.2933 104.392 17.92C105.064 17.5467 105.827 17.36 106.68 17.36C107.512 17.36 108.254 17.5413 108.904 17.904C109.555 18.2667 110.067 18.7787 110.44 19.44C110.814 20.1013 111 20.88 111 21.776C111 21.8613 110.995 21.9573 110.984 22.064C110.984 22.1707 110.979 22.272 110.968 22.368H103.848V21.04H109.912L109.128 21.456C109.139 20.9653 109.038 20.5333 108.824 20.16C108.611 19.7867 108.318 19.4933 107.944 19.28C107.582 19.0667 107.16 18.96 106.68 18.96C106.19 18.96 105.758 19.0667 105.384 19.28C105.022 19.4933 104.734 19.792 104.52 20.176C104.318 20.5493 104.216 20.992 104.216 21.504V21.824C104.216 22.336 104.334 22.7893 104.568 23.184C104.803 23.5787 105.134 23.8827 105.56 24.096C105.987 24.3093 106.478 24.416 107.032 24.416C107.512 24.416 107.944 24.3413 108.328 24.192C108.712 24.0427 109.054 23.808 109.352 23.488L110.424 24.72C110.04 25.168 109.555 25.5147 108.968 25.76C108.392 25.9947 107.731 26.112 106.984 26.112ZM115.561 26.112C114.847 26.112 114.159 26.0213 113.497 25.84C112.847 25.648 112.329 25.4187 111.945 25.152L112.713 23.632C113.097 23.8773 113.556 24.08 114.089 24.24C114.623 24.4 115.156 24.48 115.689 24.48C116.319 24.48 116.772 24.3947 117.049 24.224C117.337 24.0533 117.481 23.824 117.481 23.536C117.481 23.3013 117.385 23.1253 117.193 23.008C117.001 22.88 116.751 22.784 116.441 22.72C116.132 22.656 115.785 22.5973 115.401 22.544C115.028 22.4907 114.649 22.4213 114.265 22.336C113.892 22.24 113.551 22.1067 113.241 21.936C112.932 21.7547 112.681 21.5147 112.489 21.216C112.297 20.9173 112.201 20.5227 112.201 20.032C112.201 19.488 112.356 19.0187 112.665 18.624C112.975 18.2187 113.407 17.9093 113.961 17.696C114.527 17.472 115.193 17.36 115.961 17.36C116.537 17.36 117.119 17.424 117.705 17.552C118.292 17.68 118.777 17.8613 119.161 18.096L118.393 19.616C117.988 19.3707 117.577 19.2053 117.161 19.12C116.756 19.024 116.351 18.976 115.945 18.976C115.337 18.976 114.884 19.0667 114.585 19.248C114.297 19.4293 114.153 19.6587 114.153 19.936C114.153 20.192 114.249 20.384 114.441 20.512C114.633 20.64 114.884 20.7413 115.193 20.816C115.503 20.8907 115.844 20.9547 116.217 21.008C116.601 21.0507 116.98 21.12 117.353 21.216C117.727 21.312 118.068 21.4453 118.377 21.616C118.697 21.776 118.953 22.0053 119.145 22.304C119.337 22.6027 119.433 22.992 119.433 23.472C119.433 24.0053 119.273 24.4693 118.953 24.864C118.644 25.2587 118.201 25.568 117.625 25.792C117.049 26.0053 116.361 26.112 115.561 26.112ZM121.156 26V17.456H123.156V26H121.156ZM122.164 16.048C121.79 16.048 121.481 15.9307 121.236 15.696C121.001 15.4613 120.884 15.1787 120.884 14.848C120.884 14.5067 121.001 14.224 121.236 14C121.481 13.7653 121.79 13.648 122.164 13.648C122.537 13.648 122.841 13.76 123.076 13.984C123.321 14.1973 123.444 14.4693 123.444 14.8C123.444 15.152 123.326 15.4507 123.092 15.696C122.857 15.9307 122.548 16.048 122.164 16.048ZM129.397 26.112C128.575 26.112 127.834 25.9307 127.173 25.568C126.522 25.1947 126.01 24.6827 125.637 24.032C125.263 23.3813 125.077 22.6133 125.077 21.728C125.077 20.8427 125.263 20.0747 125.637 19.424C126.01 18.7733 126.522 18.2667 127.173 17.904C127.834 17.5413 128.575 17.36 129.397 17.36C130.111 17.36 130.751 17.52 131.317 17.84C131.882 18.1493 132.33 18.624 132.661 19.264C132.991 19.904 133.157 20.7253 133.157 21.728C133.157 22.72 132.997 23.5413 132.677 24.192C132.357 24.832 131.914 25.312 131.349 25.632C130.783 25.952 130.133 26.112 129.397 26.112ZM129.637 24.4C130.117 24.4 130.543 24.2933 130.917 24.08C131.301 23.8667 131.605 23.5573 131.829 23.152C132.063 22.7467 132.181 22.272 132.181 21.728C132.181 21.1733 132.063 20.6987 131.829 20.304C131.605 19.8987 131.301 19.5893 130.917 19.376C130.543 19.1627 130.117 19.056 129.637 19.056C129.157 19.056 128.725 19.1627 128.341 19.376C127.967 19.5893 127.663 19.8987 127.429 20.304C127.205 20.6987 127.093 21.1733 127.093 21.728C127.093 22.272 127.205 22.7467 127.429 23.152C127.663 23.5573 127.967 23.8667 128.341 24.08C128.725 24.2933 129.157 24.4 129.637 24.4ZM132.229 26V23.984L132.309 21.712L132.149 19.44V14.128H134.133V26H132.229ZM140.781 26.112C139.832 26.112 139 25.9253 138.285 25.552C137.581 25.168 137.032 24.6453 136.637 23.984C136.253 23.3227 136.061 22.5707 136.061 21.728C136.061 20.8747 136.248 20.1227 136.621 19.472C137.005 18.8107 137.528 18.2933 138.189 17.92C138.861 17.5467 139.624 17.36 140.477 17.36C141.309 17.36 142.05 17.5413 142.701 17.904C143.352 18.2667 143.864 18.7787 144.237 19.44C144.61 20.1013 144.797 20.88 144.797 21.776C144.797 21.8613 144.792 21.9573 144.781 22.064C144.781 22.1707 144.776 22.272 144.765 22.368H137.645V21.04H143.709L142.925 21.456C142.936 20.9653 142.834 20.5333 142.621 20.16C142.408 19.7867 142.114 19.4933 141.741 19.28C141.378 19.0667 140.957 18.96 140.477 18.96C139.986 18.96 139.554 19.0667 139.181 19.28C138.818 19.4933 138.53 19.792 138.317 20.176C138.114 20.5493 138.013 20.992 138.013 21.504V21.824C138.013 22.336 138.13 22.7893 138.365 23.184C138.6 23.5787 138.93 23.8827 139.357 24.096C139.784 24.3093 140.274 24.416 140.829 24.416C141.309 24.416 141.741 24.3413 142.125 24.192C142.509 24.0427 142.85 23.808 143.149 23.488L144.221 24.72C143.837 25.168 143.352 25.5147 142.765 25.76C142.189 25.9947 141.528 26.112 140.781 26.112ZM151.566 17.36C152.249 17.36 152.857 17.4933 153.39 17.76C153.934 18.0267 154.361 18.4373 154.67 18.992C154.98 19.536 155.134 20.24 155.134 21.104V26H153.134V21.36C153.134 20.6027 152.953 20.0373 152.59 19.664C152.238 19.2907 151.742 19.104 151.102 19.104C150.633 19.104 150.217 19.2 149.854 19.392C149.492 19.584 149.209 19.872 149.006 20.256C148.814 20.6293 148.718 21.104 148.718 21.68V26H146.718V17.456H148.622V19.76L148.286 19.056C148.585 18.512 149.017 18.096 149.582 17.808C150.158 17.5093 150.82 17.36 151.566 17.36ZM161.607 26.112C160.711 26.112 159.911 25.9253 159.207 25.552C158.514 25.168 157.97 24.6453 157.575 23.984C157.18 23.3227 156.983 22.5707 156.983 21.728C156.983 20.8747 157.18 20.1227 157.575 19.472C157.97 18.8107 158.514 18.2933 159.207 17.92C159.911 17.5467 160.711 17.36 161.607 17.36C162.439 17.36 163.17 17.5307 163.799 17.872C164.439 18.2027 164.924 18.6933 165.255 19.344L163.719 20.24C163.463 19.8347 163.148 19.536 162.775 19.344C162.412 19.152 162.018 19.056 161.591 19.056C161.1 19.056 160.658 19.1627 160.263 19.376C159.868 19.5893 159.559 19.8987 159.335 20.304C159.111 20.6987 158.999 21.1733 158.999 21.728C158.999 22.2827 159.111 22.7627 159.335 23.168C159.559 23.5627 159.868 23.8667 160.263 24.08C160.658 24.2933 161.1 24.4 161.591 24.4C162.018 24.4 162.412 24.304 162.775 24.112C163.148 23.92 163.463 23.6213 163.719 23.216L165.255 24.112C164.924 24.752 164.439 25.248 163.799 25.6C163.17 25.9413 162.439 26.112 161.607 26.112ZM166.906 26V17.456H168.906V26H166.906ZM167.914 16.048C167.54 16.048 167.231 15.9307 166.986 15.696C166.751 15.4613 166.634 15.1787 166.634 14.848C166.634 14.5067 166.751 14.224 166.986 14C167.231 13.7653 167.54 13.648 167.914 13.648C168.287 13.648 168.591 13.76 168.826 13.984C169.071 14.1973 169.194 14.4693 169.194 14.8C169.194 15.152 169.076 15.4507 168.842 15.696C168.607 15.9307 168.298 16.048 167.914 16.048ZM176.795 26V24.272L176.683 23.904V20.88C176.683 20.2933 176.507 19.84 176.155 19.52C175.803 19.1893 175.269 19.024 174.555 19.024C174.075 19.024 173.6 19.0987 173.131 19.248C172.672 19.3973 172.283 19.6053 171.963 19.872L171.179 18.416C171.637 18.064 172.181 17.8027 172.811 17.632C173.451 17.4507 174.112 17.36 174.795 17.36C176.032 17.36 176.987 17.6587 177.659 18.256C178.341 18.8427 178.683 19.7547 178.683 20.992V26H176.795ZM174.107 26.112C173.467 26.112 172.907 26.0053 172.427 25.792C171.947 25.568 171.573 25.264 171.307 24.88C171.051 24.4853 170.923 24.0427 170.923 23.552C170.923 23.072 171.035 22.64 171.259 22.256C171.493 21.872 171.872 21.568 172.395 21.344C172.917 21.12 173.611 21.008 174.475 21.008H176.955V22.336H174.619C173.936 22.336 173.477 22.448 173.243 22.672C173.008 22.8853 172.891 23.152 172.891 23.472C172.891 23.8347 173.035 24.1227 173.323 24.336C173.611 24.5493 174.011 24.656 174.523 24.656C175.013 24.656 175.451 24.544 175.835 24.32C176.229 24.096 176.512 23.7653 176.683 23.328L177.019 24.528C176.827 25.0293 176.48 25.4187 175.979 25.696C175.488 25.9733 174.864 26.112 174.107 26.112ZM181.25 26V14.128H183.25V26H181.25Z" fill="#010704"/>
<path d="M223.164 15.5047C224.21 18.5679 224.155 21.9001 223.008 24.927L216.504 22.4631C217.077 20.9497 217.105 19.2836 216.582 17.752L223.164 15.5047Z" fill="#FB5735" stroke="#EEFD68" stroke-width="1.5"/>
<path d="M222.981 24.9979C221.818 28.0186 219.638 30.5392 216.817 32.1254L213.408 26.0628C214.819 25.2697 215.909 24.0094 216.491 22.499L222.981 24.9979Z" fill="#FB5735" stroke="#EEFD68" stroke-width="1.5"/>
<path d="M216.791 32.1405C213.966 33.7205 210.678 34.2659 207.494 33.6826L208.747 26.8415C210.339 27.1331 211.983 26.8605 213.396 26.0704L216.791 32.1405Z" fill="#FB5735" stroke="#EEFD68" stroke-width="1.5"/>
<path d="M207.419 33.6691C204.239 33.0687 201.367 31.3778 199.299 28.8877L204.649 24.4441C205.683 25.6892 207.119 26.5346 208.709 26.8348L207.419 33.6691Z" fill="#FB5735" stroke="#EEFD68" stroke-width="1.5"/>
<path d="M199.302 28.8903C197.233 26.4006 196.098 23.2675 196.091 20.0306L203.046 20.0158C203.049 21.6343 203.617 23.2008 204.651 24.4457L199.302 28.8903Z" fill="#FB5735" stroke="#EEFD68" stroke-width="1.5"/>
<path d="M216.918 7.93352C219.726 9.54319 221.885 12.0819 223.023 15.1122L216.512 17.5569C215.943 16.0417 214.864 14.7724 213.46 13.9675L216.918 7.93352Z" fill="#FB5735" stroke="#EEFD68" stroke-width="1.5"/>
<path d="M196.091 19.9549C196.101 16.718 197.24 13.5862 199.312 11.0988L204.656 15.5494C203.62 16.7931 203.051 18.359 203.046 19.9775L196.091 19.9549Z" fill="white" fill-opacity="0.75" stroke="#EEFD68" stroke-width="1.5"/>
<path d="M199.331 11.0751C201.408 8.59231 204.285 6.9115 207.468 6.32224L208.734 13.161C207.143 13.4556 205.704 14.296 204.665 15.5374L199.331 11.0751Z" fill="white" fill-opacity="0.75" stroke="#EEFD68" stroke-width="1.5"/>
<path d="M207.543 6.308C210.729 5.73587 214.015 6.29274 216.834 7.88268L213.418 13.9408C212.008 13.1458 210.365 12.8674 208.772 13.1535L207.543 6.308Z" fill="#FB5735" stroke="#EEFD68" stroke-width="1.5"/>
</svg>
