<svg width="159" height="40" viewBox="0 0 159 40" fill="none" xmlns="http://www.w3.org/2000/svg">
<path d="M0 20C0 8.95431 8.95431 0 20 0H159V40H20C8.95431 40 0 31.0457 0 20Z" fill="#EEFD68"/>
<path d="M16.6271 19.456H22.1951V21.168H16.6271V19.456ZM16.7871 24.256H23.1071V26H14.7071V14.8H22.8831V16.544H16.7871V24.256ZM30.0819 17.36C30.7645 17.36 31.3725 17.4933 31.9059 17.76C32.4499 18.0267 32.8765 18.4373 33.1859 18.992C33.4952 19.536 33.6499 20.24 33.6499 21.104V26H31.6499V21.36C31.6499 20.6027 31.4685 20.0373 31.1059 19.664C30.7539 19.2907 30.2579 19.104 29.6179 19.104C29.1485 19.104 28.7325 19.2 28.3699 19.392C28.0072 19.584 27.7245 19.872 27.5219 20.256C27.3299 20.6293 27.2339 21.104 27.2339 21.68V26H25.2339V17.456H27.1379V19.76L26.8019 19.056C27.1005 18.512 27.5325 18.096 28.0979 17.808C28.6739 17.5093 29.3352 17.36 30.0819 17.36ZM40.8009 26V14.8H45.4089C46.4009 14.8 47.2489 14.96 47.9529 15.28C48.6675 15.6 49.2169 16.0587 49.6009 16.656C49.9849 17.2533 50.1769 17.9627 50.1769 18.784C50.1769 19.6053 49.9849 20.3147 49.6009 20.912C49.2169 21.4987 48.6675 21.952 47.9529 22.272C47.2489 22.5813 46.4009 22.736 45.4089 22.736H41.9529L42.8809 21.792V26H40.8009ZM48.1289 26L45.2969 21.936H47.5209L50.3689 26H48.1289ZM42.8809 22.016L41.9529 21.024H45.3129C46.2302 21.024 46.9182 20.8267 47.3769 20.432C47.8462 20.0373 48.0809 19.488 48.0809 18.784C48.0809 18.0693 47.8462 17.52 47.3769 17.136C46.9182 16.752 46.2302 16.56 45.3129 16.56H41.9529L42.8809 15.536V22.016ZM56.328 26.112C55.3787 26.112 54.5467 25.9253 53.832 25.552C53.128 25.168 52.5787 24.6453 52.184 23.984C51.8 23.3227 51.608 22.5707 51.608 21.728C51.608 20.8747 51.7947 20.1227 52.168 19.472C52.552 18.8107 53.0747 18.2933 53.736 17.92C54.408 17.5467 55.1707 17.36 56.024 17.36C56.856 17.36 57.5973 17.5413 58.248 17.904C58.8987 18.2667 59.4107 18.7787 59.784 19.44C60.1573 20.1013 60.344 20.88 60.344 21.776C60.344 21.8613 60.3387 21.9573 60.328 22.064C60.328 22.1707 60.3227 22.272 60.312 22.368H53.192V21.04H59.256L58.472 21.456C58.4827 20.9653 58.3813 20.5333 58.168 20.16C57.9547 19.7867 57.6613 19.4933 57.288 19.28C56.9253 19.0667 56.504 18.96 56.024 18.96C55.5333 18.96 55.1013 19.0667 54.728 19.28C54.3653 19.4933 54.0773 19.792 53.864 20.176C53.6613 20.5493 53.56 20.992 53.56 21.504V21.824C53.56 22.336 53.6773 22.7893 53.912 23.184C54.1467 23.5787 54.4773 23.8827 54.904 24.096C55.3307 24.3093 55.8213 24.416 56.376 24.416C56.856 24.416 57.288 24.3413 57.672 24.192C58.056 24.0427 58.3973 23.808 58.696 23.488L59.768 24.72C59.384 25.168 58.8987 25.5147 58.312 25.76C57.736 25.9947 57.0747 26.112 56.328 26.112ZM64.3809 26L60.7169 17.456H62.7969L65.9489 24.992H64.9249L68.1889 17.456H70.1089L66.4449 26H64.3809ZM71.3589 26V17.456H73.3589V26H71.3589ZM72.3669 16.048C71.9935 16.048 71.6842 15.9307 71.4389 15.696C71.2042 15.4613 71.0869 15.1787 71.0869 14.848C71.0869 14.5067 71.2042 14.224 71.4389 14C71.6842 13.7653 71.9935 13.648 72.3669 13.648C72.7402 13.648 73.0442 13.76 73.2789 13.984C73.5242 14.1973 73.6469 14.4693 73.6469 14.8C73.6469 15.152 73.5295 15.4507 73.2949 15.696C73.0602 15.9307 72.7509 16.048 72.3669 16.048ZM78.6239 26.112C77.9092 26.112 77.2212 26.0213 76.5599 25.84C75.9092 25.648 75.3919 25.4187 75.0079 25.152L75.7759 23.632C76.1599 23.8773 76.6185 24.08 77.1519 24.24C77.6852 24.4 78.2185 24.48 78.7519 24.48C79.3812 24.48 79.8345 24.3947 80.1119 24.224C80.3999 24.0533 80.5439 23.824 80.5439 23.536C80.5439 23.3013 80.4479 23.1253 80.2559 23.008C80.0639 22.88 79.8132 22.784 79.5039 22.72C79.1945 22.656 78.8479 22.5973 78.4639 22.544C78.0905 22.4907 77.7119 22.4213 77.3279 22.336C76.9545 22.24 76.6132 22.1067 76.3039 21.936C75.9945 21.7547 75.7439 21.5147 75.5519 21.216C75.3599 20.9173 75.2639 20.5227 75.2639 20.032C75.2639 19.488 75.4185 19.0187 75.7279 18.624C76.0372 18.2187 76.4692 17.9093 77.0239 17.696C77.5892 17.472 78.2559 17.36 79.0239 17.36C79.5999 17.36 80.1812 17.424 80.7679 17.552C81.3545 17.68 81.8399 17.8613 82.2239 18.096L81.4559 19.616C81.0505 19.3707 80.6399 19.2053 80.2239 19.12C79.8185 19.024 79.4132 18.976 79.0079 18.976C78.3999 18.976 77.9465 19.0667 77.6479 19.248C77.3599 19.4293 77.2159 19.6587 77.2159 19.936C77.2159 20.192 77.3119 20.384 77.5039 20.512C77.6959 20.64 77.9465 20.7413 78.2559 20.816C78.5652 20.8907 78.9065 20.9547 79.2799 21.008C79.6639 21.0507 80.0425 21.12 80.4159 21.216C80.7892 21.312 81.1305 21.4453 81.4399 21.616C81.7599 21.776 82.0159 22.0053 82.2079 22.304C82.3999 22.6027 82.4959 22.992 82.4959 23.472C82.4959 24.0053 82.3359 24.4693 82.0159 24.864C81.7065 25.2587 81.2639 25.568 80.6879 25.792C80.1119 26.0053 79.4239 26.112 78.6239 26.112ZM84.2183 26V17.456H86.2183V26H84.2183ZM85.2263 16.048C84.8529 16.048 84.5436 15.9307 84.2983 15.696C84.0636 15.4613 83.9463 15.1787 83.9463 14.848C83.9463 14.5067 84.0636 14.224 84.2983 14C84.5436 13.7653 84.8529 13.648 85.2263 13.648C85.5996 13.648 85.9036 13.76 86.1383 13.984C86.3836 14.1973 86.5063 14.4693 86.5063 14.8C86.5063 15.152 86.3889 15.4507 86.1543 15.696C85.9196 15.9307 85.6103 16.048 85.2263 16.048ZM92.6833 26.112C91.8086 26.112 91.0299 25.9253 90.3473 25.552C89.6646 25.168 89.1259 24.6453 88.7313 23.984C88.3366 23.3227 88.1393 22.5707 88.1393 21.728C88.1393 20.8747 88.3366 20.1227 88.7313 19.472C89.1259 18.8107 89.6646 18.2933 90.3473 17.92C91.0299 17.5467 91.8086 17.36 92.6833 17.36C93.5686 17.36 94.3526 17.5467 95.0353 17.92C95.7286 18.2933 96.2673 18.8053 96.6513 19.456C97.0459 20.1067 97.2433 20.864 97.2433 21.728C97.2433 22.5707 97.0459 23.3227 96.6513 23.984C96.2673 24.6453 95.7286 25.168 95.0353 25.552C94.3526 25.9253 93.5686 26.112 92.6833 26.112ZM92.6833 24.4C93.1739 24.4 93.6113 24.2933 93.9953 24.08C94.3793 23.8667 94.6779 23.5573 94.8913 23.152C95.1153 22.7467 95.2273 22.272 95.2273 21.728C95.2273 21.1733 95.1153 20.6987 94.8913 20.304C94.6779 19.8987 94.3793 19.5893 93.9953 19.376C93.6113 19.1627 93.1793 19.056 92.6993 19.056C92.2086 19.056 91.7713 19.1627 91.3873 19.376C91.0139 19.5893 90.7153 19.8987 90.4913 20.304C90.2673 20.6987 90.1553 21.1733 90.1553 21.728C90.1553 22.272 90.2673 22.7467 90.4913 23.152C90.7153 23.5573 91.0139 23.8667 91.3873 24.08C91.7713 24.2933 92.2033 24.4 92.6833 24.4ZM91.3233 16.288L93.4833 14.096H95.8353L93.0513 16.288H91.3233ZM104.004 17.36C104.686 17.36 105.294 17.4933 105.828 17.76C106.372 18.0267 106.798 18.4373 107.108 18.992C107.417 19.536 107.572 20.24 107.572 21.104V26H105.572V21.36C105.572 20.6027 105.39 20.0373 105.028 19.664C104.676 19.2907 104.18 19.104 103.54 19.104C103.07 19.104 102.654 19.2 102.292 19.392C101.929 19.584 101.646 19.872 101.444 20.256C101.252 20.6293 101.156 21.104 101.156 21.68V26H99.1558V17.456H101.06V19.76L100.724 19.056C101.022 18.512 101.454 18.096 102.02 17.808C102.596 17.5093 103.257 17.36 104.004 17.36Z" fill="#010704"/>
<path d="M147.164 15.5047C148.21 18.5679 148.155 21.9001 147.008 24.927L140.504 22.4631C141.077 20.9497 141.105 19.2836 140.582 17.752L147.164 15.5047Z" fill="#FB5735" stroke="#EEFD68" stroke-width="1.5"/>
<path d="M146.981 24.9979C145.818 28.0186 143.638 30.5392 140.817 32.1254L137.408 26.0628C138.819 25.2697 139.909 24.0094 140.491 22.499L146.981 24.9979Z" fill="#FB5735" stroke="#EEFD68" stroke-width="1.5"/>
<path d="M140.791 32.1405C137.966 33.7205 134.678 34.2659 131.494 33.6826L132.747 26.8415C134.339 27.1331 135.983 26.8605 137.396 26.0704L140.791 32.1405Z" fill="#FB5735" stroke="#EEFD68" stroke-width="1.5"/>
<path d="M131.419 33.6691C128.239 33.0687 125.367 31.3778 123.299 28.8877L128.649 24.4441C129.683 25.6892 131.119 26.5346 132.709 26.8348L131.419 33.6691Z" fill="#FB5735" stroke="#EEFD68" stroke-width="1.5"/>
<path d="M123.302 28.8903C121.233 26.4006 120.098 23.2675 120.091 20.0306L127.046 20.0158C127.049 21.6343 127.617 23.2008 128.651 24.4457L123.302 28.8903Z" fill="#FB5735" stroke="#EEFD68" stroke-width="1.5"/>
<path d="M140.918 7.93352C143.726 9.54319 145.885 12.0819 147.023 15.1122L140.512 17.5569C139.943 16.0417 138.864 14.7724 137.46 13.9675L140.918 7.93352Z" fill="#FB5735" stroke="#EEFD68" stroke-width="1.5"/>
<path d="M120.091 19.9549C120.101 16.718 121.24 13.5862 123.312 11.0988L128.656 15.5494C127.62 16.7931 127.051 18.359 127.046 19.9775L120.091 19.9549Z" fill="#FB5735" stroke="#EEFD68" stroke-width="1.5"/>
<path d="M123.331 11.0751C125.408 8.59231 128.285 6.9115 131.468 6.32224L132.734 13.161C131.143 13.4556 129.704 14.296 128.665 15.5374L123.331 11.0751Z" fill="white" fill-opacity="0.75" stroke="#EEFD68" stroke-width="1.5"/>
<path d="M131.543 6.308C134.729 5.73587 138.015 6.29274 140.834 7.88268L137.418 13.9408C136.008 13.1458 134.365 12.8674 132.772 13.1535L131.543 6.308Z" fill="#FB5735" stroke="#EEFD68" stroke-width="1.5"/>
</svg>
