<svg width="115" height="40" viewBox="0 0 115 40" fill="none" xmlns="http://www.w3.org/2000/svg">
<path d="M0 20C0 8.95431 8.95431 0 20 0H115V40H20C8.95431 40 0 31.0457 0 20Z" fill="#EEFD68"/>
<path d="M16.5021 19.456H22.0701V21.168H16.5021V19.456ZM16.6621 24.256H22.9821V26H14.5821V14.8H22.7581V16.544H16.6621V24.256ZM27.6708 26.112C26.9561 26.112 26.2681 26.0213 25.6068 25.84C24.9561 25.648 24.4388 25.4187 24.0548 25.152L24.8228 23.632C25.2068 23.8773 25.6654 24.08 26.1988 24.24C26.7321 24.4 27.2654 24.48 27.7988 24.48C28.4281 24.48 28.8814 24.3947 29.1588 24.224C29.4468 24.0533 29.5908 23.824 29.5908 23.536C29.5908 23.3013 29.4948 23.1253 29.3028 23.008C29.1108 22.88 28.8601 22.784 28.5508 22.72C28.2414 22.656 27.8948 22.5973 27.5108 22.544C27.1374 22.4907 26.7588 22.4213 26.3748 22.336C26.0014 22.24 25.6601 22.1067 25.3508 21.936C25.0414 21.7547 24.7908 21.5147 24.5988 21.216C24.4068 20.9173 24.3108 20.5227 24.3108 20.032C24.3108 19.488 24.4654 19.0187 24.7747 18.624C25.0841 18.2187 25.5161 17.9093 26.0707 17.696C26.6361 17.472 27.3028 17.36 28.0708 17.36C28.6468 17.36 29.2281 17.424 29.8148 17.552C30.4014 17.68 30.8868 17.8613 31.2708 18.096L30.5028 19.616C30.0974 19.3707 29.6868 19.2053 29.2708 19.12C28.8654 19.024 28.4601 18.976 28.0548 18.976C27.4468 18.976 26.9934 19.0667 26.6948 19.248C26.4068 19.4293 26.2628 19.6587 26.2628 19.936C26.2628 20.192 26.3588 20.384 26.5508 20.512C26.7428 20.64 26.9934 20.7413 27.3028 20.816C27.6121 20.8907 27.9534 20.9547 28.3268 21.008C28.7108 21.0507 29.0894 21.12 29.4628 21.216C29.8361 21.312 30.1774 21.4453 30.4868 21.616C30.8068 21.776 31.0628 22.0053 31.2548 22.304C31.4468 22.6027 31.5428 22.992 31.5428 23.472C31.5428 24.0053 31.3828 24.4693 31.0628 24.864C30.7534 25.2587 30.3108 25.568 29.7348 25.792C29.1588 26.0053 28.4708 26.112 27.6708 26.112ZM37.879 26V14.8H39.959V24.24H45.815V26H37.879ZM51.203 26.112C50.2537 26.112 49.4217 25.9253 48.707 25.552C48.003 25.168 47.4537 24.6453 47.059 23.984C46.675 23.3227 46.483 22.5707 46.483 21.728C46.483 20.8747 46.6697 20.1227 47.043 19.472C47.427 18.8107 47.9497 18.2933 48.611 17.92C49.283 17.5467 50.0457 17.36 50.899 17.36C51.731 17.36 52.4723 17.5413 53.123 17.904C53.7737 18.2667 54.2857 18.7787 54.659 19.44C55.0323 20.1013 55.219 20.88 55.219 21.776C55.219 21.8613 55.2137 21.9573 55.203 22.064C55.203 22.1707 55.1977 22.272 55.187 22.368H48.067V21.04H54.131L53.347 21.456C53.3577 20.9653 53.2563 20.5333 53.043 20.16C52.8297 19.7867 52.5363 19.4933 52.163 19.28C51.8003 19.0667 51.379 18.96 50.899 18.96C50.4083 18.96 49.9763 19.0667 49.603 19.28C49.2403 19.4933 48.9523 19.792 48.739 20.176C48.5363 20.5493 48.435 20.992 48.435 21.504V21.824C48.435 22.336 48.5523 22.7893 48.787 23.184C49.0217 23.5787 49.3523 23.8827 49.779 24.096C50.2057 24.3093 50.6963 24.416 51.251 24.416C51.731 24.416 52.163 24.3413 52.547 24.192C52.931 24.0427 53.2723 23.808 53.571 23.488L54.643 24.72C54.259 25.168 53.7737 25.5147 53.187 25.76C52.611 25.9947 51.9497 26.112 51.203 26.112ZM57.6879 29.216C57.2719 29.216 56.8559 29.1467 56.4399 29.008C56.0239 28.8693 55.6772 28.6773 55.3999 28.432L56.1999 26.96C56.4025 27.1413 56.6319 27.2853 56.8879 27.392C57.1439 27.4987 57.4052 27.552 57.6719 27.552C58.0345 27.552 58.3279 27.4613 58.5519 27.28C58.7759 27.0987 58.9839 26.7947 59.1759 26.368L59.6719 25.248L59.8319 25.008L63.0639 17.456H64.9839L60.9839 26.688C60.7172 27.328 60.4185 27.8347 60.0879 28.208C59.7679 28.5813 59.4052 28.8427 58.9999 28.992C58.6052 29.1413 58.1679 29.216 57.6879 29.216ZM59.4479 26.304L55.5919 17.456H57.6719L60.8079 24.832L59.4479 26.304Z" fill="#010704"/>
<path d="M103.164 15.5047C104.21 18.5679 104.155 21.9001 103.008 24.927L96.504 22.4631C97.0774 20.9497 97.1049 19.2836 96.582 17.752L103.164 15.5047Z" fill="#FB5735" stroke="#EEFD68" stroke-width="1.5"/>
<path d="M102.981 24.9979C101.818 28.0186 99.6382 30.5392 96.8166 32.1254L93.4083 26.0628C94.8191 25.2697 95.9091 24.0094 96.4906 22.499L102.981 24.9979Z" fill="#FB5735" stroke="#EEFD68" stroke-width="1.5"/>
<path d="M96.7906 32.1405C93.9655 33.7205 90.6779 34.2659 87.494 33.6826L88.7473 26.8415C90.3392 27.1331 91.983 26.8605 93.3956 26.0704L96.7906 32.1405Z" fill="#FB5735" stroke="#EEFD68" stroke-width="1.5"/>
<path d="M87.4193 33.6691C84.2386 33.0687 81.3669 31.3778 79.2988 28.8877L84.6491 24.4441C85.6831 25.6892 87.119 26.5346 88.7094 26.8348L87.4193 33.6691Z" fill="#FB5735" stroke="#EEFD68" stroke-width="1.5"/>
<path d="M79.3018 28.8903C77.2333 26.4006 76.0977 23.2675 76.0908 20.0306L83.0458 20.0158C83.0492 21.6343 83.617 23.2008 84.6513 24.4457L79.3018 28.8903Z" fill="#FB5735" stroke="#EEFD68" stroke-width="1.5"/>
<path d="M96.9181 7.93352C99.7264 9.54319 101.885 12.0819 103.023 15.1122L96.512 17.5569C95.9431 16.0417 94.8636 14.7724 93.4595 13.9675L96.9181 7.93352Z" fill="#FB5735" stroke="#EEFD68" stroke-width="1.5"/>
<path d="M76.0907 19.9549C76.1013 16.718 77.2403 13.5862 79.3117 11.0988L84.6561 15.5494C83.6204 16.7931 83.0509 18.359 83.0457 19.9775L76.0907 19.9549Z" fill="#FB5735" stroke="#EEFD68" stroke-width="1.5"/>
<path d="M79.3308 11.0751C81.4075 8.59231 84.2852 6.9115 87.468 6.32224L88.7341 13.161C87.1427 13.4556 85.7039 14.296 84.6655 15.5374L79.3308 11.0751Z" fill="#FB5735" stroke="#EEFD68" stroke-width="1.5"/>
<path d="M87.5431 6.308C90.7291 5.73587 94.0148 6.29274 96.8343 7.88268L93.418 13.9408C92.0083 13.1458 90.3654 12.8674 88.7725 13.1535L87.5431 6.308Z" fill="#FB5735" stroke="#EEFD68" stroke-width="1.5"/>
<path d="M88.7172 22.8822L86.1172 20.2672C85.9609 20.1101 85.9609 19.8554 86.1172 19.6983L86.6828 19.1293C86.839 18.9722 87.0923 18.9722 87.2485 19.1293L89 20.8909L92.7515 17.1178C92.9077 16.9607 93.161 16.9607 93.3172 17.1178L93.8828 17.6868C94.0391 17.8439 94.0391 18.0986 93.8828 18.2557L89.2828 22.8822C89.1266 23.0393 88.8734 23.0393 88.7172 22.8822Z" fill="#FB5735"/>
</svg>
